<svg id="Layer_1" data-name="Layer 1" xmlns="http://www.w3.org/2000/svg" viewBox="0 0 450 281.29"><defs><style>.cls-1,.cls-5{fill:#fff;}.cls-1,.cls-2{stroke:#fff;}.cls-1,.cls-2,.cls-3,.cls-4,.cls-5{stroke-miterlimit:10;stroke-width:2px;}.cls-2,.cls-4,.cls-6{fill:#ea3434;}.cls-3{fill:none;}.cls-3,.cls-4,.cls-5{stroke:#ea3434;}</style></defs><title>bengal</title><path class="cls-1" d="M299.69,90.7S419.36,105.56,419.36,0H437s.78,114.1-92.46,114.1"/><rect class="cls-2" x="106.51" y="185.31" width="28.03" height="77.39"/><rect class="cls-2" x="282.21" y="185.31" width="28.03" height="77.39"/><path class="cls-1" d="M299.69,203c30.46,0,55.15-25.13,55.15-56.14S330.15,90.7,299.69,90.7h-166c-30.46,0-55.15,25.13-55.15,56.13S103.26,203,133.72,203Z"/><circle class="cls-1" cx="118.65" cy="260.43" r="16.74"/><circle class="cls-1" cx="294.34" cy="260.43" r="16.74"/><path class="cls-2" d="M27.12,87.56S3.33,41.91,11.36,32.26c0,0,5.15-6.1,41.16,17"/><path class="cls-2" d="M106.45,196.21s28.71-13.7,28.71-100.64l-56.59,35.2S69.67,172.77,106.45,196.21Z"/><path class="cls-2" d="M134.37,87.56s23.79-45.65,15.75-55.3c0,0-5.14-6.1-41.15,17"/><circle class="cls-1" cx="80.86" cy="95.57" r="54.3"/><circle class="cls-3" cx="58.1" cy="94.5" r="10.99"/><ellipse class="cls-4" cx="58.1" cy="94.5" rx="4" ry="6.03"/><circle class="cls-3" cx="102.85" cy="94.5" r="10.99"/><ellipse class="cls-4" cx="102.85" cy="94.5" rx="4" ry="6.03"/><path class="cls-4" d="M80.86,112.89c-10.37,0-8.33,2.48-8.33,2.48s8.33,3.63,8.33,7.26"/><path class="cls-4" d="M80.86,112.89c10.38,0,8.33,2.48,8.33,2.48s-8.33,3.63-8.33,7.26"/><line class="cls-5" x1="54.94" y1="114.1" x2="10.55" y2="109.23"/><line class="cls-5" x1="54.15" y1="122.32" x2="9.76" y2="127.18"/><line class="cls-5" x1="107.32" y1="114.1" x2="151.71" y2="109.23"/><line class="cls-5" x1="108.11" y1="122.32" x2="152.5" y2="127.18"/><circle class="cls-6" cx="203.27" cy="95.57" r="14.06"/><circle class="cls-6" cx="263.55" cy="127.18" r="14.06"/><circle class="cls-6" cx="321.43" cy="111.66" r="14.06"/><circle class="cls-6" cx="263.55" cy="180.87" r="10.65"/><circle class="cls-6" cx="203.27" cy="154.2" r="10.65"/><path class="cls-6" d="M71.8,41.2V74H88.53V41.2S78.7,29.26,71.8,41.2Z"/><polyline class="cls-6" points="58.1 46.26 58.1 64.94 66.36 64.94 66.36 43.23"/><polyline class="cls-6" points="102.88 46.26 102.88 64.94 94.62 64.94 94.62 43.23"/></svg>