<?xml version="1.0" encoding="utf-8"?>
<!-- Generator: Adobe Illustrator 23.0.3, SVG Export Plug-In . SVG Version: 6.00 Build 0)  -->
<svg version="1.1" id="Cat_x5F_Face" xmlns="http://www.w3.org/2000/svg" xmlns:xlink="http://www.w3.org/1999/xlink" x="0px"
	 y="0px" viewBox="0 0 159.73 134.81" style="enable-background:new 0 0 159.73 134.81;" xml:space="preserve">
<style type="text/css">
	.st0{fill:#EA3434;}
	.st1{fill:#FFFFFF;stroke:#EA3434;stroke-width:3;stroke-miterlimit:10;}
	.st2{fill:none;stroke:#EA3434;stroke-width:3;stroke-miterlimit:10;}
	.st3{fill:#EA3434;stroke:#EA3434;stroke-width:3;stroke-miterlimit:10;}
</style>
<path class="st0" d="M19.48,62.67c0,0-26.61-51.07-17.62-61.86c0,0,5.75-6.83,46.03,19.06"/>
<path class="st0" d="M139.45,62.67c0,0,26.61-51.07,17.62-61.86c0,0-5.75-6.83-46.03,19.06"/>
<circle class="st1" cx="79.6" cy="71.62" r="60.74"/>
<circle class="st2" cx="54.13" cy="70.43" r="12.3"/>
<ellipse class="st3" cx="54.13" cy="70.43" rx="4.47" ry="6.75"/>
<circle class="st2" cx="104.19" cy="70.43" r="12.3"/>
<ellipse class="st3" cx="104.19" cy="70.43" rx="4.47" ry="6.75"/>
<g>
	<path class="st3" d="M79.6,91.01c-11.6,0-9.32,2.78-9.32,2.78s9.32,4.06,9.32,8.11"/>
	<path class="st3" d="M79.6,91.01c11.6,0,9.32,2.78,9.32,2.78s-9.32,4.06-9.32,8.11"/>
</g>
<line class="st1" x1="50.6" y1="92.35" x2="0.94" y2="86.91"/>
<line class="st1" x1="49.72" y1="101.55" x2="0.06" y2="106.99"/>
<line class="st1" x1="109.19" y1="92.35" x2="158.85" y2="86.91"/>
<line class="st1" x1="110.08" y1="101.55" x2="159.73" y2="106.99"/>
</svg>
