<?xml version="1.0" encoding="utf-8"?>
<!-- Generator: Adobe Illustrator 23.0.3, SVG Export Plug-In . SVG Version: 6.00 Build 0)  -->
<svg version="1.1" id="Layer_1" xmlns="http://www.w3.org/2000/svg" xmlns:xlink="http://www.w3.org/1999/xlink" x="0px" y="0px"
	 viewBox="0 0 383.72 158.14" style="enable-background:new 0 0 383.72 158.14;" xml:space="preserve">
<style type="text/css">
	.st0{fill:#58B3DB;}
	.st1{fill:#FFFFFF;stroke:#58B3DB;stroke-width:2;stroke-miterlimit:10;}
	.st2{fill:#58B3DB;stroke:#58B3DB;stroke-width:2;stroke-miterlimit:10;}
	.st3{fill:#58B3DB;stroke:#58B3DB;stroke-miterlimit:10;}
	.st4{fill:none;stroke:#58B3DB;stroke-width:2;stroke-miterlimit:10;}
	.st5{fill:#FFFFFF;stroke:#FFFFFF;stroke-miterlimit:10;}
	.st6{fill:#58B3DB;stroke:#FFFFFF;stroke-width:2;stroke-miterlimit:10;}
</style>
<path class="st0" d="M141.97,58.37c0,0-20.08-38.54-13.3-46.68c0,0,4.34-5.16,34.74,14.38"/>
<path class="st0" d="M232.51,58.37c0,0,20.08-38.54,13.3-46.68c0,0-4.34-5.16-34.74,14.38"/>
<circle class="st1" cx="187.34" cy="65.12" r="45.84"/>
<circle class="st1" cx="168.12" cy="64.22" r="9.28"/>
<ellipse class="st2" cx="168.12" cy="64.22" rx="3.37" ry="5.09"/>
<circle class="st1" cx="205.9" cy="64.22" r="9.28"/>
<ellipse class="st2" cx="205.9" cy="64.22" rx="3.37" ry="5.09"/>
<g>
	<g>
		<path class="st3" d="M187.34,79.75c-8.76,0-7.03,2.09-7.03,2.09s7.03,3.06,7.03,6.12"/>
		<path class="st3" d="M187.34,79.75c8.76,0,7.03,2.09,7.03,2.09s-7.03,3.06-7.03,6.12"/>
	</g>
</g>
<line class="st1" x1="165.46" y1="80.76" x2="127.99" y2="76.65"/>
<line class="st1" x1="164.79" y1="87.7" x2="127.32" y2="91.81"/>
<line class="st1" x1="209.67" y1="80.76" x2="247.15" y2="76.65"/>
<line class="st1" x1="210.34" y1="87.7" x2="247.81" y2="91.81"/>
<path class="st0" d="M179.69,19.23v27.72h14.12V19.23C193.81,19.23,187.34,17.26,179.69,19.23z"/>
<polyline class="st0" points="168.12,23.5 168.12,39.27 175.09,39.27 175.09,20.94 "/>
<polyline class="st0" points="205.93,23.5 205.93,39.27 198.96,39.27 198.96,20.94 "/>
<path class="st4" d="M261.01,100.04c0,0-16.35-34.7-9.59-42.81c0,0,4.54-11.17,34.8,8.29"/>
<path class="st4" d="M349.47,100.04c0,0,16.35-34.7,9.59-42.81c0,0-4.54-11.17-34.8,8.29"/>
<circle class="st0" cx="305.78" cy="106.77" r="45.64"/>
<g>
	<g>
		<path class="st5" d="M305.78,113.81c-8.72,0-7,2.09-7,2.09s7,3.05,7,6.09"/>
		<path class="st5" d="M305.78,113.81c8.72,0,7,2.09,7,2.09s-7,3.05-7,6.09"/>
	</g>
</g>
<line class="st1" x1="335.53" y1="117.83" x2="372.84" y2="113.74"/>
<line class="st1" x1="337.39" y1="125.49" x2="374.7" y2="129.58"/>
<line class="st1" x1="275.04" y1="117.83" x2="237.73" y2="113.74"/>
<line class="st1" x1="273.19" y1="125.49" x2="235.88" y2="129.58"/>
<path class="st0" d="M23.68,88.42c0,0-15.72-13.71-16.85-43.81c0,0-1.11-18.21,16.73-5.12c0,0,25.45,23.65,32.31,26.68
	C55.87,66.17,40.25,92.24,23.68,88.42z"/>
<path class="st0" d="M110.71,88.42c0,0,15.72-13.71,16.85-43.81c0,0,1.11-18.21-16.73-5.12c0,0-25.45,23.65-32.31,26.68
	C78.51,66.17,94.14,92.24,110.71,88.42z"/>
<circle class="st1" cx="67.71" cy="103.22" r="45.64"/>
<g>
	<g>
		<path class="st3" d="M67.71,127.77c-8.72,0-7,2.09-7,2.09s7,3.05,7,6.09"/>
		<path class="st3" d="M67.71,127.77c8.72,0,7,2.09,7,2.09s-7,3.05-7,6.09"/>
	</g>
</g>
<line class="st2" x1="43.97" y1="125.66" x2="6.66" y2="121.57"/>
<line class="st2" x1="47.37" y1="133.32" x2="10.06" y2="137.41"/>
<line class="st2" x1="91.13" y1="125.69" x2="128.44" y2="121.6"/>
<line class="st2" x1="87.74" y1="133.35" x2="125.05" y2="137.44"/>
<path class="st1" d="M39.5,102.98c0,0,7-8.71,15.73-0.18"/>
<path class="st1" d="M80.7,102.98c0,0,7-8.71,15.73-0.18"/>
<line class="st6" x1="275.9" y1="105.87" x2="294.38" y2="105.87"/>
<line class="st6" x1="316.52" y1="105.87" x2="335" y2="105.87"/>
</svg>
