<?xml version="1.0" encoding="utf-8"?>
<!-- Generator: Adobe Illustrator 23.0.3, SVG Export Plug-In . SVG Version: 6.00 Build 0)  -->
<svg version="1.1" id="Layer_1" xmlns="http://www.w3.org/2000/svg" xmlns:xlink="http://www.w3.org/1999/xlink" x="0px" y="0px"
	 viewBox="0 0 262.79 262.84" style="enable-background:new 0 0 262.79 262.84;" xml:space="preserve">
<style type="text/css">
	.st0{fill:none;}
	.st1{fill:#EA3434;}
	.st2{font-family:'ArialRoundedMTBold';}
	.st3{font-size:56px;}
	.st4{fill:#58B3DB;}
	.st5{font-size:40px;}
	.st6{fill:#EA3434;stroke:#EA3434;stroke-miterlimit:10;}
	.st7{fill:#FFFFFF;stroke:#EA3434;stroke-width:3;stroke-miterlimit:10;}
	.st8{fill:#EA3434;stroke:#EA3434;stroke-width:3;stroke-miterlimit:10;}
</style>
<rect x="5.29" y="49.44" class="st0" width="51.06" height="206.75"/>
<text transform="matrix(1 0 0 1 5.2898 90.207)" class="st1 st2 st3">C</text>
<text transform="matrix(1 0 0 1 5.2898 144.207)" class="st1 st2 st3">A</text>
<text transform="matrix(1 0 0 1 5.2898 198.207)" class="st1 st2 st3">T</text>
<text transform="matrix(1 0 0 1 5.2898 252.207)" class="st1 st2 st3">S</text>
<rect x="5.29" y="8.13" class="st0" width="191.49" height="38.3"/>
<text transform="matrix(1 0 0 1 5.29 37.2505)" class="st4 st2 st5">The Ideal</text>
<rect x="46.4" y="60.44" class="st0" width="216.39" height="38.3"/>
<text transform="matrix(1 0 0 1 46.3963 89.56)" class="st4 st2 st5">ompanions</text>
<path class="st6" d="M91.82,186.5c0,0-26.61-51.07-17.62-61.86c0,0,5.75-6.83,46.03,19.06"/>
<path class="st6" d="M211.79,186.5c0,0,26.61-51.07,17.62-61.86c0,0-5.75-6.83-46.03,19.06"/>
<circle class="st7" cx="151.94" cy="195.45" r="60.74"/>
<circle class="st7" cx="126.47" cy="194.26" r="12.3"/>
<ellipse class="st8" cx="126.47" cy="194.26" rx="4.47" ry="6.75"/>
<circle class="st7" cx="176.53" cy="194.26" r="12.3"/>
<ellipse class="st8" cx="176.53" cy="194.26" rx="4.47" ry="6.75"/>
<g>
	<path class="st8" d="M151.94,214.83c-11.6,0-9.32,2.78-9.32,2.78s9.32,4.06,9.32,8.11"/>
	<path class="st8" d="M151.94,214.83c11.6,0,9.32,2.78,9.32,2.78s-9.32,4.06-9.32,8.11"/>
</g>
<line class="st7" x1="122.94" y1="216.17" x2="73.29" y2="210.73"/>
<line class="st7" x1="122.06" y1="225.37" x2="72.4" y2="230.81"/>
<line class="st7" x1="181.53" y1="216.17" x2="231.19" y2="210.73"/>
<line class="st7" x1="182.42" y1="225.37" x2="232.08" y2="230.81"/>
</svg>
