<?xml version="1.0" encoding="utf-8"?>
<!-- Generator: Adobe Illustrator 23.0.3, SVG Export Plug-In . SVG Version: 6.00 Build 0)  -->
<svg version="1.1" id="Layer_1" xmlns="http://www.w3.org/2000/svg" xmlns:xlink="http://www.w3.org/1999/xlink" x="0px" y="0px"
	 viewBox="0 0 262.8 262.8" style="enable-background:new 0 0 262.8 262.8;" xml:space="preserve">
<style type="text/css">
	.st0{fill:none;}
	.st1{enable-background:new    ;}
	.st2{fill:#EA3434;}
	.st3{fill:#58B3DB;}
	.st4{fill:#EA3434;stroke:#EA3434;stroke-miterlimit:10;}
	.st5{fill:#FFFFFF;stroke:#EA3434;stroke-width:3;stroke-miterlimit:10;}
	.st6{fill:#EA3434;stroke:#EA3434;stroke-width:3;stroke-miterlimit:10;}
	.st7{fill:none;stroke:#EA3434;stroke-width:3;stroke-miterlimit:10;}
</style>
<rect x="5.3" y="49.4" class="st0" width="51.1" height="206.8"/>
<g class="st1">
	<path class="st2" d="M43.8,77.5c0,1.3-0.3,2.7-0.9,4.1c-0.6,1.5-1.6,2.9-3,4.4c-1.3,1.4-3.1,2.6-5.2,3.5c-2.1,0.9-4.5,1.3-7.3,1.3
		c-2.1,0-4-0.2-5.8-0.6c-1.7-0.4-3.3-1-4.7-1.9c-1.4-0.8-2.7-2-3.9-3.3c-1.1-1.3-2-2.7-2.7-4.2c-0.7-1.6-1.3-3.2-1.7-5
		c-0.4-1.8-0.6-3.6-0.6-5.6c0-3.2,0.5-6.1,1.4-8.7c0.9-2.6,2.3-4.7,4-6.5c1.8-1.8,3.8-3.2,6.2-4.1c2.4-0.9,4.9-1.4,7.5-1.4
		c3.2,0,6.1,0.6,8.7,1.9c2.5,1.3,4.5,2.9,5.8,4.8c1.3,1.9,2,3.7,2,5.4c0,0.9-0.3,1.8-1,2.5s-1.4,1.1-2.4,1.1c-1,0-1.8-0.2-2.3-0.7
		s-1.1-1.3-1.7-2.5c-1.1-2-2.3-3.5-3.7-4.5c-1.4-1-3.2-1.5-5.3-1.5c-3.3,0-6,1.3-8,3.8c-2,2.5-3,6.1-3,10.8c0,3.1,0.4,5.7,1.3,7.8
		c0.9,2.1,2.1,3.6,3.7,4.6c1.6,1,3.5,1.5,5.6,1.5c2.3,0,4.3-0.6,5.9-1.7c1.6-1.2,2.8-2.9,3.7-5.1c0.3-1.1,0.8-1.9,1.3-2.6
		c0.5-0.7,1.3-1,2.5-1c1,0,1.8,0.3,2.5,1C43.5,75.7,43.8,76.5,43.8,77.5z"/>
</g>
<g class="st1">
	<path class="st2" d="M35.3,139.7l-1.9-5H17.1l-1.9,5.1c-0.7,2-1.4,3.4-1.9,4.1c-0.5,0.7-1.4,1.1-2.6,1.1c-1,0-1.9-0.4-2.7-1.1
		c-0.8-0.7-1.2-1.6-1.2-2.5c0-0.5,0.1-1.1,0.3-1.7c0.2-0.6,0.5-1.4,0.9-2.4l10.3-26c0.3-0.7,0.6-1.6,1.1-2.7c0.4-1,0.8-1.9,1.3-2.6
		c0.5-0.7,1.1-1.3,1.8-1.7c0.8-0.4,1.7-0.6,2.8-0.6c1.1,0,2.1,0.2,2.8,0.6c0.8,0.4,1.4,1,1.8,1.7c0.5,0.7,0.9,1.4,1.2,2.2
		c0.3,0.8,0.7,1.8,1.2,3.1l10.5,25.9c0.8,2,1.2,3.4,1.2,4.3c0,0.9-0.4,1.8-1.2,2.6c-0.8,0.8-1.7,1.2-2.8,1.2c-0.6,0-1.2-0.1-1.6-0.3
		c-0.5-0.2-0.8-0.5-1.1-0.9c-0.3-0.4-0.6-1-1-1.8C35.9,141,35.6,140.3,35.3,139.7z M19.2,128.5h12l-6-16.5L19.2,128.5z"/>
</g>
<g class="st1">
	<path class="st2" d="M35.7,164.8h-8.9v29.1c0,1.7-0.4,2.9-1.1,3.7c-0.7,0.8-1.7,1.2-2.9,1.2c-1.2,0-2.2-0.4-2.9-1.2
		c-0.8-0.8-1.1-2.1-1.1-3.7v-29.1H9.9c-1.4,0-2.4-0.3-3.1-0.9c-0.7-0.6-1-1.4-1-2.4c0-1,0.4-1.9,1.1-2.5c0.7-0.6,1.7-0.9,3-0.9h25.8
		c1.4,0,2.4,0.3,3.1,0.9c0.7,0.6,1,1.4,1,2.4c0,1-0.3,1.8-1,2.4C38.1,164.5,37.1,164.8,35.7,164.8z"/>
</g>
<g class="st1">
	<path class="st2" d="M40.1,240.2c0,2.4-0.6,4.6-1.9,6.5c-1.2,1.9-3.1,3.4-5.5,4.5s-5.3,1.6-8.6,1.6c-4,0-7.2-0.7-9.8-2.2
		c-1.8-1.1-3.3-2.5-4.4-4.3c-1.1-1.8-1.7-3.5-1.7-5.2c0-1,0.3-1.8,1-2.5c0.7-0.7,1.6-1.1,2.6-1.1c0.9,0,1.6,0.3,2.2,0.8
		c0.6,0.5,1.1,1.4,1.5,2.4c0.5,1.3,1.1,2.3,1.7,3.2c0.6,0.9,1.4,1.6,2.5,2.1c1.1,0.6,2.5,0.8,4.2,0.8c2.4,0,4.4-0.6,5.9-1.7
		s2.3-2.5,2.3-4.2c0-1.3-0.4-2.4-1.2-3.2c-0.8-0.8-1.9-1.5-3.1-1.9s-3-0.9-5.2-1.4c-2.9-0.7-5.3-1.5-7.2-2.4s-3.5-2.1-4.6-3.7
		C9.6,226.9,9,225,9,222.6c0-2.2,0.6-4.2,1.8-5.9c1.2-1.7,2.9-3,5.2-4c2.3-0.9,5-1.4,8-1.4c2.5,0,4.6,0.3,6.4,0.9
		c1.8,0.6,3.3,1.4,4.5,2.4c1.2,1,2.1,2.1,2.6,3.2c0.5,1.1,0.8,2.2,0.8,3.3c0,1-0.3,1.8-1,2.6c-0.7,0.8-1.5,1.2-2.6,1.2
		c-0.9,0-1.6-0.2-2.1-0.7c-0.5-0.5-1-1.2-1.6-2.3c-0.7-1.5-1.6-2.7-2.6-3.5c-1-0.8-2.7-1.3-4.9-1.3c-2.1,0-3.8,0.5-5.1,1.4
		c-1.3,0.9-1.9,2-1.9,3.3c0,0.8,0.2,1.5,0.7,2.1c0.4,0.6,1,1.1,1.8,1.5c0.8,0.4,1.5,0.7,2.3,1c0.8,0.2,2.1,0.6,3.9,1
		c2.3,0.5,4.3,1.1,6.1,1.8c1.8,0.6,3.4,1.4,4.7,2.3c1.3,0.9,2.3,2.1,3,3.5C39.8,236.4,40.1,238.2,40.1,240.2z"/>
</g>
<rect x="5.3" y="8.1" class="st0" width="191.5" height="38.3"/>
<g class="st1">
	<path class="st3" d="M27,13.4h-6.3v20.8c0,1.2-0.3,2.1-0.8,2.7c-0.5,0.6-1.2,0.9-2.1,0.9c-0.9,0-1.6-0.3-2.1-0.9
		c-0.5-0.6-0.8-1.5-0.8-2.7V13.4H8.6c-1,0-1.7-0.2-2.2-0.7c-0.5-0.4-0.7-1-0.7-1.7c0-0.7,0.3-1.3,0.8-1.8c0.5-0.4,1.2-0.6,2.2-0.6
		H27c1,0,1.7,0.2,2.2,0.7s0.7,1,0.7,1.7s-0.2,1.3-0.7,1.7C28.7,13.2,28,13.4,27,13.4z"/>
	<path class="st3" d="M37.7,11.4v7.9c0.7-0.8,1.3-1.4,2-1.9s1.4-0.8,2.1-1s1.6-0.3,2.5-0.3c1.4,0,2.6,0.3,3.6,0.9
		c1,0.6,1.9,1.4,2.5,2.5c0.4,0.6,0.6,1.4,0.8,2.1c0.1,0.8,0.2,1.7,0.2,2.7v10.2c0,1.1-0.2,1.9-0.7,2.4s-1.1,0.8-1.9,0.8
		c-1.8,0-2.6-1.1-2.6-3.2v-9c0-1.7-0.3-3-0.8-3.9s-1.5-1.4-2.9-1.4c-1,0-1.8,0.3-2.6,0.8s-1.3,1.3-1.7,2.2c-0.3,0.8-0.4,2.2-0.4,4.2
		v7.1c0,1.1-0.2,1.9-0.7,2.4c-0.5,0.6-1.1,0.8-2,0.8c-1.8,0-2.6-1.1-2.6-3.2V11.4c0-1.1,0.2-1.9,0.7-2.4c0.5-0.5,1.1-0.8,1.9-0.8
		c0.8,0,1.5,0.3,2,0.8C37.5,9.5,37.7,10.3,37.7,11.4z"/>
	<path class="st3" d="M71.6,28.2H61.1c0,1.2,0.3,2.3,0.7,3.2c0.5,0.9,1.1,1.6,1.9,2.1c0.8,0.5,1.7,0.7,2.6,0.7
		c0.6,0,1.2-0.1,1.7-0.2s1-0.4,1.5-0.7c0.5-0.3,1-0.7,1.4-1c0.4-0.4,1-0.9,1.6-1.5c0.3-0.2,0.7-0.4,1.2-0.4c0.5,0,1,0.1,1.3,0.4
		c0.3,0.3,0.5,0.7,0.5,1.3c0,0.5-0.2,1-0.6,1.7c-0.4,0.6-0.9,1.3-1.7,1.9s-1.7,1.1-2.9,1.5s-2.5,0.6-4,0.6c-3.4,0-6.1-1-8-2.9
		c-1.9-2-2.9-4.6-2.9-7.9c0-1.6,0.2-3,0.7-4.4s1.2-2.5,2.1-3.5s2-1.7,3.3-2.2c1.3-0.5,2.8-0.8,4.4-0.8c2.1,0,3.9,0.4,5.4,1.3
		c1.5,0.9,2.6,2,3.3,3.4S76,23.6,76,25c0,1.3-0.4,2.2-1.2,2.6C74,28,73,28.2,71.6,28.2z M61.1,25.2h9.7c-0.1-1.8-0.6-3.2-1.5-4.1
		c-0.9-0.9-2-1.4-3.4-1.4c-1.3,0-2.4,0.5-3.3,1.4C61.8,22,61.3,23.4,61.1,25.2z"/>
	<path class="st3" d="M91.1,34.2V11.6c0-1.2,0.3-2.1,0.8-2.6c0.5-0.6,1.2-0.9,2.1-0.9c0.9,0,1.6,0.3,2.1,0.9
		c0.5,0.6,0.8,1.5,0.8,2.6v22.6c0,1.2-0.3,2.1-0.8,2.7c-0.5,0.6-1.2,0.9-2.1,0.9c-0.8,0-1.5-0.3-2.1-0.9
		C91.3,36.3,91.1,35.4,91.1,34.2z"/>
	<path class="st3" d="M117.6,34.7v-0.5c-0.7,0.8-1.4,1.5-2.1,2c-0.7,0.5-1.5,0.9-2.3,1.2c-0.8,0.3-1.7,0.4-2.7,0.4
		c-1.3,0-2.5-0.3-3.5-0.8c-1.1-0.5-2-1.3-2.8-2.3c-0.8-1-1.4-2.2-1.8-3.5s-0.6-2.8-0.6-4.4c0-3.3,0.8-5.9,2.4-7.8
		c1.6-1.9,3.8-2.8,6.4-2.8c1.5,0,2.8,0.3,3.9,0.8s2.1,1.3,3.1,2.4v-7.9c0-1.1,0.2-1.9,0.7-2.5c0.4-0.6,1.1-0.8,1.9-0.8
		c0.8,0,1.4,0.3,1.9,0.8c0.4,0.5,0.7,1.3,0.7,2.3v23.5c0,1-0.2,1.8-0.7,2.3s-1.1,0.8-1.8,0.8c-0.7,0-1.3-0.3-1.8-0.8
		C117.8,36.4,117.6,35.7,117.6,34.7z M107.1,26.9c0,1.4,0.2,2.7,0.7,3.7s1.1,1.8,1.8,2.3s1.6,0.8,2.6,0.8c0.9,0,1.8-0.2,2.6-0.7
		c0.8-0.5,1.4-1.2,1.9-2.2c0.5-1,0.7-2.3,0.7-3.8c0-1.4-0.2-2.6-0.7-3.7c-0.5-1-1.1-1.8-1.9-2.3c-0.8-0.5-1.7-0.8-2.6-0.8
		c-1,0-1.8,0.3-2.6,0.8c-0.8,0.6-1.4,1.3-1.8,2.4C107.3,24.3,107.1,25.5,107.1,26.9z"/>
	<path class="st3" d="M142.8,28.2h-10.4c0,1.2,0.3,2.3,0.7,3.2c0.5,0.9,1.1,1.6,1.9,2.1c0.8,0.5,1.7,0.7,2.6,0.7
		c0.6,0,1.2-0.1,1.7-0.2s1-0.4,1.5-0.7c0.5-0.3,1-0.7,1.4-1c0.4-0.4,1-0.9,1.6-1.5c0.3-0.2,0.7-0.4,1.2-0.4c0.5,0,1,0.1,1.3,0.4
		c0.3,0.3,0.5,0.7,0.5,1.3c0,0.5-0.2,1-0.6,1.7c-0.4,0.6-0.9,1.3-1.7,1.9s-1.7,1.1-2.9,1.5s-2.5,0.6-4,0.6c-3.4,0-6.1-1-8-2.9
		c-1.9-2-2.9-4.6-2.9-7.9c0-1.6,0.2-3,0.7-4.4s1.2-2.5,2.1-3.5s2-1.7,3.3-2.2c1.3-0.5,2.8-0.8,4.4-0.8c2.1,0,3.9,0.4,5.4,1.3
		c1.5,0.9,2.6,2,3.3,3.4s1.1,2.8,1.1,4.3c0,1.3-0.4,2.2-1.2,2.6C145.3,28,144.2,28.2,142.8,28.2z M132.4,25.2h9.7
		c-0.1-1.8-0.6-3.2-1.5-4.1c-0.9-0.9-2-1.4-3.4-1.4c-1.3,0-2.4,0.5-3.3,1.4C133.1,22,132.6,23.4,132.4,25.2z"/>
	<path class="st3" d="M165.2,34.7c-1.3,1-2.5,1.8-3.7,2.3c-1.2,0.5-2.6,0.8-4.1,0.8c-1.4,0-2.6-0.3-3.6-0.8s-1.8-1.3-2.4-2.2
		c-0.6-0.9-0.8-1.9-0.8-3c0-1.5,0.5-2.7,1.4-3.7c0.9-1,2.2-1.7,3.8-2.1c0.3-0.1,1.2-0.3,2.5-0.5c1.3-0.3,2.5-0.5,3.4-0.8
		s2-0.5,3.1-0.8c-0.1-1.4-0.3-2.4-0.8-3.1c-0.5-0.7-1.5-1-3.1-1c-1.4,0-2.4,0.2-3.1,0.6s-1.3,0.9-1.8,1.7s-0.8,1.3-1,1.5
		c-0.2,0.2-0.6,0.4-1.3,0.4c-0.6,0-1.1-0.2-1.6-0.6c-0.4-0.4-0.7-0.9-0.7-1.5c0-0.9,0.3-1.8,1-2.7s1.7-1.6,3.1-2.2s3.2-0.9,5.3-0.9
		c2.3,0,4.2,0.3,5.5,0.8c1.3,0.6,2.3,1.4,2.8,2.6c0.6,1.2,0.8,2.8,0.8,4.8c0,1.2,0,2.3,0,3.2c0,0.9,0,1.8,0,2.9c0,1,0.2,2,0.5,3.1
		s0.5,1.8,0.5,2.1c0,0.5-0.3,1-0.8,1.5c-0.5,0.4-1.1,0.7-1.7,0.7c-0.5,0-1.1-0.3-1.6-0.8C166.4,36.5,165.8,35.7,165.2,34.7z
		 M164.9,27c-0.8,0.3-1.9,0.6-3.4,0.9c-1.5,0.3-2.5,0.6-3.1,0.7c-0.6,0.1-1.1,0.4-1.6,0.9c-0.5,0.4-0.8,1-0.8,1.8
		c0,0.8,0.3,1.5,0.9,2.1c0.6,0.6,1.4,0.8,2.4,0.8c1.1,0,2-0.2,2.9-0.7c0.9-0.5,1.5-1.1,2-1.8c0.5-0.8,0.7-2.1,0.7-4V27z"/>
	<path class="st3" d="M175.5,34.5V11.4c0-1.1,0.2-1.9,0.7-2.4c0.5-0.5,1.1-0.8,1.9-0.8c0.8,0,1.5,0.3,2,0.8c0.5,0.5,0.7,1.4,0.7,2.4
		v23.1c0,1.1-0.3,1.9-0.8,2.4c-0.5,0.5-1.1,0.8-1.9,0.8c-0.8,0-1.4-0.3-1.9-0.8S175.5,35.5,175.5,34.5z"/>
</g>
<rect x="46.4" y="60.4" class="st0" width="216.4" height="38.3"/>
<g class="st1">
	<path class="st3" d="M69.1,79.2c0,1.6-0.2,3.1-0.7,4.4c-0.5,1.3-1.2,2.5-2.1,3.5s-2.1,1.7-3.4,2.2c-1.3,0.5-2.8,0.8-4.4,0.8
		c-1.6,0-3.1-0.3-4.4-0.8S51.7,88,50.8,87c-0.9-1-1.7-2.1-2.1-3.4s-0.7-2.8-0.7-4.4c0-1.6,0.2-3.1,0.7-4.4c0.5-1.3,1.2-2.5,2.1-3.4
		c0.9-1,2-1.7,3.4-2.2c1.3-0.5,2.8-0.8,4.4-0.8c1.6,0,3.1,0.3,4.4,0.8c1.3,0.5,2.4,1.3,3.4,2.2s1.7,2.1,2.1,3.4S69.1,77.6,69.1,79.2
		z M63.8,79.2c0-2.2-0.5-3.9-1.4-5.1s-2.2-1.8-3.9-1.8c-1,0-2,0.3-2.8,0.8c-0.8,0.5-1.4,1.3-1.8,2.4s-0.6,2.3-0.6,3.7
		c0,1.4,0.2,2.6,0.6,3.7c0.4,1,1,1.8,1.8,2.4c0.8,0.6,1.7,0.8,2.8,0.8c1.6,0,2.9-0.6,3.9-1.8S63.8,81.4,63.8,79.2z"/>
	<path class="st3" d="M91,79.6v7.1c0,1.1-0.3,2-0.8,2.5s-1.2,0.8-2,0.8c-0.8,0-1.5-0.3-2-0.8c-0.5-0.6-0.8-1.4-0.8-2.5v-8.5
		c0-1.3,0-2.4-0.1-3.1c-0.1-0.7-0.3-1.4-0.7-1.8c-0.4-0.5-1-0.7-1.9-0.7c-1.7,0-2.9,0.6-3.4,1.8c-0.6,1.2-0.8,2.9-0.8,5.2v7.2
		c0,1.1-0.3,1.9-0.8,2.5c-0.5,0.6-1.2,0.8-2,0.8c-0.8,0-1.5-0.3-2-0.8c-0.5-0.6-0.8-1.4-0.8-2.5V71.4c0-1,0.2-1.8,0.7-2.3
		c0.5-0.5,1.1-0.8,1.8-0.8c0.7,0,1.3,0.2,1.8,0.7s0.7,1.2,0.7,2v0.5c0.9-1.1,1.9-1.9,3-2.4s2.2-0.8,3.5-0.8c1.3,0,2.5,0.3,3.5,0.8
		c1,0.5,1.8,1.3,2.4,2.4c0.9-1.1,1.9-1.9,2.9-2.4c1-0.5,2.2-0.8,3.4-0.8c1.5,0,2.7,0.3,3.8,0.9s1.8,1.4,2.4,2.5
		c0.5,1,0.7,2.5,0.7,4.6v10.4c0,1.1-0.3,2-0.8,2.5s-1.2,0.8-2,0.8c-0.8,0-1.5-0.3-2-0.8c-0.5-0.6-0.8-1.4-0.8-2.5v-9
		c0-1.1,0-2.1-0.1-2.8s-0.4-1.3-0.8-1.7s-1.1-0.7-2-0.7c-0.7,0-1.4,0.2-2,0.6c-0.6,0.4-1.1,1-1.5,1.7C91.2,75.7,91,77.3,91,79.6z"/>
	<path class="st3" d="M113.6,71.4V72c1-1.2,2-2.1,3.1-2.7c1.1-0.6,2.3-0.9,3.7-0.9c1.6,0,3.2,0.4,4.5,1.3c1.4,0.8,2.5,2.1,3.3,3.7
		s1.2,3.6,1.2,5.8c0,1.6-0.2,3.1-0.7,4.5c-0.5,1.4-1.1,2.5-1.9,3.5c-0.8,0.9-1.8,1.6-2.9,2.1c-1.1,0.5-2.3,0.8-3.5,0.8
		c-1.5,0-2.8-0.3-3.8-0.9s-2-1.5-3-2.7v8c0,2.3-0.9,3.5-2.6,3.5c-1,0-1.7-0.3-2-0.9c-0.3-0.6-0.5-1.5-0.5-2.6v-23
		c0-1,0.2-1.8,0.7-2.3c0.4-0.5,1-0.8,1.8-0.8c0.8,0,1.4,0.3,1.8,0.8C113.4,69.7,113.6,70.4,113.6,71.4z M124.1,79.1
		c0-1.4-0.2-2.6-0.6-3.6s-1-1.8-1.8-2.3s-1.6-0.8-2.5-0.8c-1.5,0-2.7,0.6-3.7,1.7c-1,1.2-1.5,2.9-1.5,5.1c0,2.1,0.5,3.8,1.5,5
		c1,1.2,2.2,1.8,3.7,1.8c0.9,0,1.7-0.3,2.5-0.8c0.8-0.5,1.4-1.3,1.8-2.3C123.8,81.8,124.1,80.6,124.1,79.1z"/>
	<path class="st3" d="M147.2,87c-1.3,1-2.5,1.8-3.7,2.3c-1.2,0.5-2.6,0.8-4.1,0.8c-1.4,0-2.6-0.3-3.6-0.8s-1.8-1.3-2.4-2.2
		c-0.6-0.9-0.8-1.9-0.8-3c0-1.5,0.5-2.7,1.4-3.7c0.9-1,2.2-1.7,3.8-2.1c0.3-0.1,1.2-0.3,2.5-0.5c1.3-0.3,2.5-0.5,3.4-0.8
		s2-0.5,3.1-0.8c-0.1-1.4-0.3-2.4-0.8-3.1c-0.5-0.7-1.5-1-3.1-1c-1.4,0-2.4,0.2-3.1,0.6s-1.3,0.9-1.8,1.7s-0.8,1.3-1,1.5
		c-0.2,0.2-0.6,0.4-1.3,0.4c-0.6,0-1.1-0.2-1.6-0.6c-0.4-0.4-0.7-0.9-0.7-1.5c0-0.9,0.3-1.8,1-2.7s1.7-1.6,3.1-2.2s3.2-0.9,5.3-0.9
		c2.3,0,4.2,0.3,5.5,0.8c1.3,0.6,2.3,1.4,2.8,2.6c0.6,1.2,0.8,2.8,0.8,4.8c0,1.2,0,2.3,0,3.2c0,0.9,0,1.8,0,2.9c0,1,0.2,2,0.5,3.1
		s0.5,1.8,0.5,2.1c0,0.5-0.3,1-0.8,1.5c-0.5,0.4-1.1,0.7-1.7,0.7c-0.5,0-1.1-0.3-1.6-0.8C148.3,88.8,147.8,88,147.2,87z M146.8,79.3
		c-0.8,0.3-1.9,0.6-3.4,0.9c-1.5,0.3-2.5,0.6-3.1,0.7c-0.6,0.1-1.1,0.4-1.6,0.9c-0.5,0.4-0.8,1-0.8,1.8c0,0.8,0.3,1.5,0.9,2.1
		c0.6,0.6,1.4,0.8,2.4,0.8c1.1,0,2-0.2,2.9-0.7c0.9-0.5,1.5-1.1,2-1.8c0.5-0.8,0.7-2.1,0.7-4V79.3z"/>
	<path class="st3" d="M162.3,71.3V72c0.9-1.2,2-2.1,3.1-2.7s2.4-0.9,3.8-0.9c1.4,0,2.7,0.3,3.8,0.9c1.1,0.6,1.9,1.5,2.5,2.6
		c0.4,0.7,0.6,1.4,0.7,2.1c0.1,0.8,0.2,1.7,0.2,2.9v9.9c0,1.1-0.2,1.9-0.7,2.4s-1.1,0.8-1.9,0.8c-0.8,0-1.4-0.3-1.9-0.8
		c-0.5-0.6-0.7-1.4-0.7-2.4v-8.9c0-1.8-0.2-3.1-0.7-4s-1.5-1.4-2.9-1.4c-1,0-1.8,0.3-2.6,0.8s-1.4,1.3-1.7,2.3
		c-0.3,0.8-0.4,2.3-0.4,4.5v6.7c0,1.1-0.3,1.9-0.8,2.4c-0.5,0.5-1.1,0.8-1.9,0.8c-0.8,0-1.4-0.3-1.9-0.8c-0.5-0.6-0.7-1.4-0.7-2.4
		V71.4c0-1,0.2-1.8,0.7-2.3c0.4-0.5,1-0.8,1.8-0.8c0.5,0,0.9,0.1,1.3,0.3c0.4,0.2,0.7,0.6,0.9,1C162.2,70.1,162.3,70.7,162.3,71.3z"
		/>
	<path class="st3" d="M184.3,65.9c-0.7,0-1.4-0.2-1.9-0.7s-0.8-1.1-0.8-1.9c0-0.8,0.3-1.4,0.8-1.9c0.5-0.5,1.2-0.7,1.9-0.7
		c0.7,0,1.3,0.2,1.8,0.7c0.5,0.4,0.8,1.1,0.8,1.9c0,0.8-0.3,1.5-0.8,1.9C185.7,65.7,185,65.9,184.3,65.9z M187,71.4v15.4
		c0,1.1-0.3,1.9-0.8,2.4S185,90,184.3,90s-1.4-0.3-1.9-0.8s-0.7-1.4-0.7-2.4V71.6c0-1.1,0.2-1.8,0.7-2.4s1.1-0.8,1.9-0.8
		s1.4,0.3,1.9,0.8S187,70.4,187,71.4z"/>
	<path class="st3" d="M212.4,79.2c0,1.6-0.2,3.1-0.7,4.4c-0.5,1.3-1.2,2.5-2.1,3.5s-2.1,1.7-3.4,2.2c-1.3,0.5-2.8,0.8-4.4,0.8
		c-1.6,0-3.1-0.3-4.4-0.8S195,88,194.1,87c-0.9-1-1.7-2.1-2.1-3.4s-0.7-2.8-0.7-4.4c0-1.6,0.2-3.1,0.7-4.4c0.5-1.3,1.2-2.5,2.1-3.4
		c0.9-1,2-1.7,3.4-2.2c1.3-0.5,2.8-0.8,4.4-0.8c1.6,0,3.1,0.3,4.4,0.8c1.3,0.5,2.4,1.3,3.4,2.2s1.7,2.1,2.1,3.4
		S212.4,77.6,212.4,79.2z M207.1,79.2c0-2.2-0.5-3.9-1.4-5.1s-2.2-1.8-3.9-1.8c-1,0-2,0.3-2.8,0.8c-0.8,0.5-1.4,1.3-1.8,2.4
		s-0.6,2.3-0.6,3.7c0,1.4,0.2,2.6,0.6,3.7c0.4,1,1,1.8,1.8,2.4c0.8,0.6,1.7,0.8,2.8,0.8c1.6,0,2.9-0.6,3.9-1.8
		S207.1,81.4,207.1,79.2z"/>
	<path class="st3" d="M221.5,71.3V72c0.9-1.2,2-2.1,3.1-2.7s2.4-0.9,3.8-0.9c1.4,0,2.7,0.3,3.8,0.9c1.1,0.6,1.9,1.5,2.5,2.6
		c0.4,0.7,0.6,1.4,0.7,2.1c0.1,0.8,0.2,1.7,0.2,2.9v9.9c0,1.1-0.2,1.9-0.7,2.4s-1.1,0.8-1.9,0.8c-0.8,0-1.4-0.3-1.9-0.8
		c-0.5-0.6-0.7-1.4-0.7-2.4v-8.9c0-1.8-0.2-3.1-0.7-4s-1.5-1.4-2.9-1.4c-1,0-1.8,0.3-2.6,0.8s-1.4,1.3-1.7,2.3
		c-0.3,0.8-0.4,2.3-0.4,4.5v6.7c0,1.1-0.3,1.9-0.8,2.4c-0.5,0.5-1.1,0.8-1.9,0.8c-0.8,0-1.4-0.3-1.9-0.8c-0.5-0.6-0.7-1.4-0.7-2.4
		V71.4c0-1,0.2-1.8,0.7-2.3c0.4-0.5,1-0.8,1.8-0.8c0.5,0,0.9,0.1,1.3,0.3c0.4,0.2,0.7,0.6,0.9,1C221.4,70.1,221.5,70.7,221.5,71.3z"
		/>
	<path class="st3" d="M258,83.1c0,1.5-0.4,2.7-1.1,3.8c-0.7,1-1.8,1.8-3.2,2.4c-1.4,0.5-3.1,0.8-5.1,0.8c-1.9,0-3.6-0.3-4.9-0.9
		s-2.4-1.3-3-2.2c-0.7-0.9-1-1.8-1-2.6c0-0.6,0.2-1.1,0.6-1.5c0.4-0.4,0.9-0.6,1.6-0.6c0.6,0,1,0.1,1.3,0.4c0.3,0.3,0.6,0.7,0.9,1.2
		c0.5,1,1.2,1.7,2,2.1s1.8,0.7,3.1,0.7c1.1,0,1.9-0.2,2.6-0.7s1-1,1-1.6c0-0.9-0.4-1.6-1.1-2.1c-0.7-0.4-1.9-0.8-3.5-1.2
		c-1.8-0.5-3.3-0.9-4.5-1.4s-2.1-1.2-2.8-2c-0.7-0.8-1-1.8-1-3c0-1.1,0.3-2.1,1-3c0.6-1,1.6-1.7,2.8-2.3c1.2-0.6,2.7-0.8,4.5-0.8
		c1.4,0,2.6,0.1,3.7,0.4c1.1,0.3,2,0.7,2.8,1.2c0.7,0.5,1.3,1,1.7,1.6c0.4,0.6,0.6,1.2,0.6,1.7c0,0.6-0.2,1.1-0.6,1.5
		s-1,0.6-1.7,0.6c-0.5,0-1-0.2-1.4-0.5c-0.4-0.3-0.8-0.8-1.3-1.4c-0.4-0.5-0.9-0.9-1.4-1.2s-1.3-0.5-2.2-0.5c-1,0-1.8,0.2-2.4,0.6
		c-0.6,0.4-1,0.9-1,1.5c0,0.6,0.2,1,0.7,1.4s1.1,0.7,1.9,0.9c0.8,0.2,1.9,0.5,3.3,0.9c1.7,0.4,3,0.9,4.1,1.4c1,0.6,1.8,1.2,2.4,2
		C257.7,81.2,258,82.1,258,83.1z"/>
</g>
<path class="st4" d="M91.8,186.5c0,0-26.6-51.1-17.6-61.9c0,0,5.8-6.8,46,19.1"/>
<path class="st4" d="M211.8,186.5c0,0,26.6-51.1,17.6-61.9c0,0-5.8-6.8-46,19.1"/>
<circle class="st5" cx="151.9" cy="195.4" r="60.7"/>
<circle class="st5" cx="126.5" cy="194.3" r="12.3"/>
<ellipse class="st6" cx="126.5" cy="194.3" rx="4.5" ry="6.8"/>
<circle class="st5" cx="176.5" cy="194.3" r="12.3"/>
<ellipse class="st6" cx="176.5" cy="194.3" rx="4.5" ry="6.8"/>
<g>
	<path class="st6" d="M151.9,214.8c-11.6,0-9.3,2.8-9.3,2.8s9.3,4.1,9.3,8.1"/>
	<path class="st6" d="M151.9,214.8c11.6,0,9.3,2.8,9.3,2.8s-9.3,4.1-9.3,8.1"/>
</g>
<line class="st7" x1="122.9" y1="216.2" x2="73.3" y2="210.7"/>
<line class="st7" x1="122.1" y1="225.4" x2="72.4" y2="230.8"/>
<line class="st7" x1="181.5" y1="216.2" x2="231.2" y2="210.7"/>
<line class="st7" x1="182.4" y1="225.4" x2="232.1" y2="230.8"/>
</svg>
