<?xml version="1.0" encoding="utf-8"?>
<!-- Generator: Adobe Illustrator 23.0.3, SVG Export Plug-In . SVG Version: 6.00 Build 0)  -->
<svg version="1.1" id="logo_x5F_text" xmlns="http://www.w3.org/2000/svg" xmlns:xlink="http://www.w3.org/1999/xlink" x="0px"
	 y="0px" viewBox="0 0 252.86 244.97" style="enable-background:new 0 0 252.86 244.97;" xml:space="preserve">
<style type="text/css">
	.st0{fill:#EA3434;}
	.st1{fill:#58B3DB;}
</style>
<g>
	<path class="st0" d="M38.53,69.42c0,1.28-0.31,2.66-0.94,4.14c-0.63,1.49-1.62,2.94-2.97,4.38c-1.35,1.43-3.07,2.59-5.17,3.49
		c-2.1,0.89-4.54,1.34-7.33,1.34c-2.11,0-4.04-0.2-5.77-0.6c-1.73-0.4-3.3-1.03-4.72-1.87c-1.41-0.85-2.71-1.96-3.9-3.35
		c-1.06-1.26-1.96-2.67-2.71-4.22c-0.75-1.56-1.31-3.22-1.68-4.99c-0.37-1.77-0.56-3.65-0.56-5.63c0-3.23,0.47-6.12,1.41-8.67
		c0.94-2.55,2.28-4.73,4.03-6.55c1.75-1.81,3.8-3.19,6.15-4.14c2.35-0.95,4.86-1.42,7.52-1.42c3.24,0,6.13,0.65,8.67,1.94
		c2.53,1.29,4.48,2.89,5.82,4.8c1.35,1.91,2.02,3.71,2.02,5.4c0,0.93-0.33,1.75-0.98,2.46s-1.45,1.07-2.38,1.07
		c-1.04,0-1.82-0.25-2.34-0.74s-1.1-1.34-1.74-2.54c-1.06-1.99-2.3-3.47-3.73-4.46c-1.43-0.98-3.19-1.48-5.29-1.48
		c-3.34,0-5.99,1.27-7.97,3.8c-1.98,2.53-2.97,6.13-2.97,10.8c0,3.12,0.44,5.71,1.31,7.78c0.88,2.07,2.11,3.61,3.72,4.63
		c1.6,1.02,3.48,1.53,5.63,1.53c2.33,0,4.31-0.58,5.92-1.74c1.61-1.16,2.83-2.86,3.65-5.1c0.35-1.06,0.77-1.92,1.29-2.58
		c0.51-0.67,1.33-1,2.46-1c0.97,0,1.8,0.34,2.49,1.01C38.18,67.57,38.53,68.41,38.53,69.42z"/>
	<path class="st0" d="M30.02,131.54l-1.91-5.03h-16.3l-1.91,5.14c-0.75,2.01-1.39,3.36-1.91,4.06c-0.53,0.7-1.39,1.05-2.6,1.05
		c-1.02,0-1.92-0.37-2.71-1.12c-0.78-0.75-1.18-1.59-1.18-2.54c0-0.55,0.09-1.11,0.27-1.7c0.18-0.58,0.48-1.39,0.9-2.43l10.25-26.03
		c0.29-0.75,0.64-1.65,1.05-2.69c0.41-1.05,0.85-1.92,1.31-2.61c0.46-0.69,1.08-1.25,1.83-1.68c0.76-0.43,1.69-0.64,2.8-0.64
		c1.13,0,2.07,0.21,2.83,0.64c0.76,0.43,1.37,0.98,1.83,1.65c0.46,0.67,0.86,1.4,1.18,2.17c0.32,0.77,0.72,1.81,1.22,3.1
		l10.47,25.87c0.82,1.97,1.23,3.4,1.23,4.29c0,0.93-0.39,1.78-1.16,2.56c-0.77,0.77-1.71,1.16-2.8,1.16c-0.64,0-1.19-0.11-1.64-0.34
		c-0.46-0.23-0.84-0.54-1.15-0.93c-0.31-0.39-0.64-0.99-1-1.8C30.58,132.87,30.28,132.16,30.02,131.54z M13.95,120.41h11.98
		l-6.04-16.54L13.95,120.41z"/>
	<path class="st0" d="M30.41,156.69h-8.86v29.12c0,1.68-0.37,2.92-1.12,3.73c-0.75,0.81-1.71,1.22-2.9,1.22
		c-1.2,0-2.18-0.41-2.94-1.23c-0.76-0.82-1.13-2.06-1.13-3.72v-29.12H4.59c-1.39,0-2.42-0.3-3.09-0.92
		c-0.67-0.61-1.01-1.42-1.01-2.42c0-1.04,0.35-1.86,1.05-2.46c0.7-0.6,1.72-0.9,3.05-0.9h25.81c1.4,0,2.45,0.31,3.13,0.93
		c0.68,0.62,1.03,1.43,1.03,2.43c0,1-0.35,1.81-1.04,2.42C32.83,156.38,31.79,156.69,30.41,156.69z"/>
	<path class="st0" d="M34.84,232.04c0,2.42-0.62,4.6-1.87,6.54c-1.25,1.93-3.08,3.45-5.48,4.54s-5.26,1.64-8.56,1.64
		c-3.96,0-7.22-0.75-9.79-2.24c-1.82-1.08-3.3-2.51-4.44-4.31c-1.14-1.79-1.71-3.54-1.71-5.24c0-0.98,0.34-1.83,1.03-2.53
		c0.68-0.7,1.55-1.05,2.61-1.05c0.86,0,1.58,0.27,2.17,0.82c0.59,0.55,1.1,1.36,1.52,2.43c0.51,1.28,1.06,2.34,1.65,3.2
		c0.59,0.86,1.43,1.56,2.5,2.12c1.08,0.56,2.49,0.83,4.24,0.83c2.41,0,4.36-0.56,5.87-1.68s2.26-2.52,2.26-4.2
		c0-1.33-0.41-2.41-1.22-3.24c-0.81-0.83-1.86-1.46-3.14-1.9s-3-0.9-5.15-1.39c-2.88-0.67-5.29-1.46-7.23-2.37s-3.48-2.13-4.62-3.69
		c-1.14-1.56-1.71-3.5-1.71-5.81c0-2.21,0.6-4.17,1.8-5.88c1.2-1.71,2.94-3.03,5.22-3.95c2.28-0.92,4.96-1.38,8.04-1.38
		c2.46,0,4.59,0.31,6.38,0.92c1.8,0.61,3.29,1.42,4.47,2.43c1.18,1.01,2.05,2.07,2.6,3.19c0.55,1.11,0.82,2.2,0.82,3.25
		c0,0.97-0.34,1.84-1.03,2.61c-0.68,0.78-1.54,1.16-2.56,1.16c-0.93,0-1.64-0.23-2.12-0.7c-0.48-0.46-1.01-1.23-1.57-2.28
		c-0.73-1.51-1.6-2.69-2.62-3.54c-1.02-0.85-2.66-1.27-4.92-1.27c-2.1,0-3.79,0.46-5.07,1.38c-1.29,0.92-1.93,2.03-1.93,3.32
		c0,0.8,0.22,1.5,0.66,2.08c0.44,0.58,1.04,1.08,1.8,1.5c0.77,0.42,1.54,0.75,2.32,0.98c0.78,0.24,2.08,0.58,3.88,1.04
		c2.26,0.53,4.31,1.11,6.14,1.75c1.83,0.64,3.39,1.41,4.68,2.32c1.29,0.91,2.29,2.06,3.01,3.46
		C34.48,228.31,34.84,230.02,34.84,232.04z"/>
</g>
<g>
	<path class="st1" d="M21.72,5.27h-6.33v20.8c0,1.2-0.27,2.09-0.8,2.67c-0.53,0.58-1.22,0.87-2.07,0.87c-0.86,0-1.56-0.29-2.1-0.88
		c-0.54-0.59-0.81-1.47-0.81-2.66V5.27H3.28c-0.99,0-1.73-0.22-2.21-0.65C0.59,4.18,0.35,3.61,0.35,2.89c0-0.74,0.25-1.33,0.75-1.76
		C1.6,0.7,2.33,0.49,3.28,0.49h18.44c1,0,1.75,0.22,2.24,0.66c0.49,0.44,0.73,1.02,0.73,1.74c0,0.72-0.25,1.29-0.74,1.73
		C23.45,5.05,22.71,5.27,21.72,5.27z"/>
	<path class="st1" d="M32.44,3.24v7.91c0.68-0.78,1.34-1.4,1.98-1.86c0.64-0.46,1.36-0.8,2.14-1.03c0.78-0.23,1.62-0.34,2.52-0.34
		c1.35,0,2.56,0.29,3.6,0.86c1.05,0.57,1.87,1.41,2.47,2.5c0.38,0.64,0.63,1.35,0.76,2.14c0.13,0.79,0.2,1.7,0.2,2.72v10.21
		c0,1.07-0.24,1.88-0.73,2.42s-1.14,0.82-1.94,0.82c-1.76,0-2.64-1.08-2.64-3.24v-9c0-1.71-0.25-3.02-0.76-3.94
		s-1.47-1.38-2.89-1.38c-0.95,0-1.81,0.27-2.57,0.81c-0.76,0.54-1.33,1.28-1.71,2.22c-0.29,0.79-0.43,2.21-0.43,4.24v7.05
		c0,1.05-0.24,1.86-0.71,2.41c-0.48,0.55-1.14,0.83-1.98,0.83c-1.76,0-2.64-1.08-2.64-3.24V3.24c0-1.08,0.23-1.89,0.69-2.43
		C28.26,0.27,28.91,0,29.75,0c0.85,0,1.51,0.27,1.98,0.82C32.2,1.37,32.44,2.17,32.44,3.24z"/>
	<path class="st1" d="M66.27,20.08H55.84c0.01,1.21,0.26,2.28,0.73,3.2c0.48,0.92,1.11,1.62,1.89,2.09c0.79,0.47,1.66,0.7,2.61,0.7
		c0.64,0,1.22-0.07,1.75-0.22c0.53-0.15,1.04-0.38,1.53-0.7c0.49-0.32,0.95-0.66,1.37-1.03c0.42-0.36,0.96-0.86,1.62-1.48
		c0.27-0.23,0.66-0.35,1.17-0.35c0.55,0,0.99,0.15,1.33,0.45c0.34,0.3,0.51,0.72,0.51,1.27c0,0.48-0.19,1.04-0.57,1.69
		c-0.38,0.64-0.95,1.26-1.71,1.86c-0.76,0.59-1.72,1.08-2.87,1.47s-2.48,0.59-3.97,0.59c-3.42,0-6.09-0.98-7.99-2.93
		c-1.9-1.95-2.85-4.6-2.85-7.95c0-1.58,0.23-3.04,0.7-4.38s1.15-2.5,2.05-3.47c0.9-0.96,2-1.7,3.32-2.22
		c1.31-0.51,2.77-0.77,4.38-0.77c2.08,0,3.87,0.44,5.36,1.32c1.49,0.88,2.61,2.02,3.35,3.41c0.74,1.39,1.11,2.81,1.11,4.26
		c0,1.34-0.38,2.21-1.15,2.61C68.74,19.88,67.66,20.08,66.27,20.08z M55.84,17.05h9.67c-0.13-1.82-0.62-3.19-1.47-4.09
		c-0.85-0.9-1.98-1.36-3.37-1.36c-1.33,0-2.42,0.46-3.27,1.38C56.54,13.9,56.02,15.25,55.84,17.05z"/>
	<path class="st1" d="M85.76,26.07V3.51c0-1.17,0.27-2.05,0.8-2.64C87.1,0.29,87.79,0,88.63,0c0.87,0,1.58,0.29,2.12,0.87
		c0.54,0.58,0.81,1.46,0.81,2.65v22.56c0,1.19-0.27,2.07-0.81,2.66c-0.54,0.59-1.25,0.88-2.12,0.88c-0.83,0-1.52-0.3-2.06-0.89
		C86.03,28.13,85.76,27.24,85.76,26.07z"/>
	<path class="st1" d="M112.28,26.56v-0.53c-0.72,0.82-1.42,1.49-2.12,2c-0.7,0.51-1.45,0.91-2.27,1.17c-0.81,0.27-1.7,0.4-2.67,0.4
		c-1.28,0-2.46-0.27-3.54-0.81c-1.09-0.54-2.03-1.31-2.82-2.31c-0.79-1-1.4-2.18-1.81-3.54c-0.41-1.35-0.62-2.82-0.62-4.39
		c0-3.33,0.81-5.93,2.44-7.79c1.63-1.86,3.77-2.79,6.43-2.79c1.54,0,2.83,0.26,3.89,0.79s2.08,1.34,3.09,2.43V3.32
		c0-1.09,0.22-1.92,0.65-2.48C113.38,0.28,114,0,114.8,0c0.81,0,1.43,0.26,1.87,0.77c0.44,0.51,0.65,1.27,0.65,2.28v23.52
		c0,1.02-0.23,1.78-0.7,2.29s-1.07,0.76-1.82,0.76c-0.73,0-1.33-0.26-1.81-0.79C112.52,28.29,112.28,27.54,112.28,26.56z
		 M101.8,18.73c0,1.45,0.22,2.68,0.67,3.69s1.06,1.78,1.85,2.29c0.78,0.51,1.63,0.77,2.56,0.77c0.94,0,1.79-0.24,2.57-0.73
		c0.77-0.49,1.39-1.24,1.86-2.25c0.46-1.01,0.69-2.27,0.69-3.78c0-1.42-0.23-2.64-0.69-3.66c-0.46-1.02-1.09-1.8-1.88-2.34
		c-0.79-0.54-1.65-0.81-2.59-0.81c-0.98,0-1.85,0.28-2.62,0.83c-0.77,0.55-1.36,1.35-1.79,2.38
		C102.01,16.16,101.8,17.36,101.8,18.73z"/>
	<path class="st1" d="M137.56,20.08h-10.43c0.01,1.21,0.26,2.28,0.73,3.2c0.48,0.92,1.11,1.62,1.89,2.09
		c0.79,0.47,1.66,0.7,2.61,0.7c0.64,0,1.22-0.07,1.75-0.22c0.53-0.15,1.04-0.38,1.53-0.7c0.49-0.32,0.95-0.66,1.37-1.03
		c0.42-0.36,0.96-0.86,1.62-1.48c0.27-0.23,0.66-0.35,1.17-0.35c0.55,0,0.99,0.15,1.33,0.45c0.34,0.3,0.51,0.72,0.51,1.27
		c0,0.48-0.19,1.04-0.57,1.69c-0.38,0.64-0.95,1.26-1.71,1.86c-0.76,0.59-1.72,1.08-2.87,1.47s-2.48,0.59-3.97,0.59
		c-3.42,0-6.09-0.98-7.99-2.93c-1.9-1.95-2.85-4.6-2.85-7.95c0-1.58,0.23-3.04,0.7-4.38s1.15-2.5,2.05-3.47
		c0.9-0.96,2-1.7,3.32-2.22c1.31-0.51,2.77-0.77,4.38-0.77c2.08,0,3.87,0.44,5.36,1.32c1.49,0.88,2.61,2.02,3.35,3.41
		c0.74,1.39,1.11,2.81,1.11,4.26c0,1.34-0.38,2.21-1.15,2.61C140.03,19.88,138.95,20.08,137.56,20.08z M127.13,17.05h9.67
		c-0.13-1.82-0.62-3.19-1.47-4.09c-0.85-0.9-1.98-1.36-3.37-1.36c-1.33,0-2.42,0.46-3.27,1.38
		C127.83,13.9,127.31,15.25,127.13,17.05z"/>
	<path class="st1" d="M159.92,26.6c-1.29,1-2.54,1.75-3.74,2.26c-1.2,0.5-2.56,0.75-4.05,0.75c-1.37,0-2.57-0.27-3.6-0.81
		s-1.83-1.27-2.39-2.2c-0.56-0.92-0.84-1.93-0.84-3.01c0-1.46,0.46-2.7,1.39-3.73c0.92-1.03,2.19-1.72,3.81-2.07
		c0.34-0.08,1.18-0.25,2.52-0.53c1.34-0.27,2.49-0.52,3.45-0.75c0.96-0.23,2-0.5,3.12-0.83c-0.07-1.41-0.35-2.44-0.85-3.1
		c-0.5-0.66-1.54-0.99-3.12-0.99c-1.35,0-2.37,0.19-3.06,0.57c-0.68,0.38-1.27,0.94-1.76,1.7c-0.49,0.76-0.83,1.25-1.04,1.49
		c-0.2,0.24-0.63,0.36-1.3,0.36c-0.6,0-1.12-0.19-1.55-0.58c-0.44-0.38-0.65-0.88-0.65-1.47c0-0.94,0.33-1.85,1-2.73
		c0.66-0.89,1.7-1.61,3.11-2.19c1.41-0.57,3.16-0.86,5.25-0.86c2.34,0,4.19,0.28,5.53,0.83c1.34,0.55,2.29,1.43,2.84,2.63
		c0.55,1.2,0.83,2.79,0.83,4.77c0,1.25,0,2.31-0.01,3.18c-0.01,0.87-0.02,1.84-0.03,2.91c0,1,0.17,2.05,0.5,3.13
		c0.33,1.09,0.5,1.79,0.5,2.1c0,0.55-0.26,1.04-0.77,1.49s-1.1,0.67-1.75,0.67c-0.55,0-1.09-0.26-1.62-0.77
		S160.52,27.58,159.92,26.6z M159.57,18.89c-0.78,0.29-1.92,0.59-3.41,0.91c-1.49,0.32-2.52,0.55-3.1,0.7
		c-0.57,0.15-1.12,0.44-1.64,0.88c-0.52,0.44-0.78,1.04-0.78,1.83c0,0.81,0.31,1.49,0.92,2.06c0.61,0.57,1.41,0.85,2.4,0.85
		c1.05,0,2.03-0.23,2.92-0.69c0.89-0.46,1.55-1.06,1.96-1.79c0.48-0.81,0.72-2.14,0.72-3.98V18.89z"/>
	<path class="st1" d="M170.21,26.37V3.24c0-1.07,0.24-1.88,0.71-2.42S172.04,0,172.85,0s1.46,0.27,1.95,0.81
		c0.5,0.54,0.74,1.35,0.74,2.43v23.12c0,1.08-0.25,1.89-0.75,2.43s-1.15,0.81-1.94,0.81c-0.78,0-1.42-0.28-1.9-0.84
		S170.21,27.41,170.21,26.37z"/>
</g>
<g>
	<path class="st1" d="M63.82,71.08c0,1.59-0.25,3.05-0.74,4.39c-0.5,1.34-1.21,2.49-2.15,3.46c-0.94,0.96-2.06,1.7-3.36,2.22
		c-1.3,0.51-2.77,0.77-4.39,0.77c-1.61,0-3.07-0.26-4.36-0.78s-2.41-1.27-3.35-2.24c-0.94-0.97-1.66-2.12-2.15-3.44
		c-0.49-1.32-0.73-2.78-0.73-4.38c0-1.61,0.25-3.09,0.74-4.43c0.49-1.34,1.2-2.49,2.13-3.44c0.92-0.95,2.04-1.68,3.36-2.2
		c1.31-0.51,2.77-0.77,4.36-0.77c1.61,0,3.08,0.26,4.39,0.78c1.31,0.52,2.44,1.26,3.38,2.23c0.94,0.96,1.65,2.11,2.14,3.44
		S63.82,69.48,63.82,71.08z M58.47,71.08c0-2.17-0.48-3.87-1.44-5.08s-2.24-1.82-3.86-1.82c-1.04,0-1.96,0.27-2.75,0.81
		c-0.79,0.54-1.41,1.34-1.84,2.39s-0.64,2.29-0.64,3.69c0,1.39,0.21,2.61,0.63,3.65c0.42,1.04,1.03,1.84,1.82,2.39
		c0.79,0.55,1.72,0.83,2.78,0.83c1.61,0,2.9-0.61,3.86-1.83C57.99,74.91,58.47,73.23,58.47,71.08z"/>
	<path class="st1" d="M85.75,71.47v7.09c0,1.12-0.25,1.96-0.76,2.52s-1.18,0.84-2.01,0.84c-0.81,0-1.46-0.28-1.96-0.84
		c-0.5-0.56-0.75-1.4-0.75-2.52v-8.5c0-1.34-0.05-2.38-0.14-3.12c-0.09-0.74-0.34-1.35-0.74-1.83c-0.4-0.47-1.04-0.71-1.91-0.71
		c-1.75,0-2.89,0.6-3.45,1.8c-0.55,1.2-0.83,2.92-0.83,5.16v7.21c0,1.11-0.25,1.94-0.75,2.51c-0.5,0.57-1.16,0.85-1.98,0.85
		c-0.81,0-1.47-0.28-1.98-0.85c-0.51-0.57-0.77-1.4-0.77-2.51V63.3c0-1,0.23-1.76,0.69-2.29c0.46-0.52,1.07-0.78,1.83-0.78
		c0.73,0,1.34,0.24,1.83,0.73s0.73,1.16,0.73,2.02v0.51c0.92-1.11,1.91-1.92,2.97-2.44c1.05-0.52,2.23-0.78,3.52-0.78
		c1.34,0,2.49,0.27,3.46,0.8c0.96,0.53,1.76,1.34,2.38,2.42c0.9-1.09,1.86-1.9,2.89-2.43c1.03-0.53,2.17-0.79,3.42-0.79
		c1.46,0,2.71,0.29,3.77,0.86c1.05,0.57,1.84,1.39,2.36,2.46c0.46,0.96,0.68,2.48,0.68,4.55v10.41c0,1.12-0.25,1.96-0.76,2.52
		s-1.18,0.84-2.01,0.84c-0.81,0-1.47-0.28-1.98-0.85c-0.51-0.57-0.77-1.4-0.77-2.51v-8.96c0-1.15-0.05-2.06-0.15-2.75
		c-0.1-0.69-0.36-1.27-0.79-1.74s-1.08-0.7-1.95-0.7c-0.7,0-1.37,0.21-2,0.62c-0.63,0.42-1.12,0.98-1.47,1.68
		C85.95,67.6,85.75,69.19,85.75,71.47z"/>
	<path class="st1" d="M108.33,63.23v0.64c1-1.24,2.04-2.14,3.12-2.72c1.08-0.58,2.3-0.87,3.67-0.87c1.64,0,3.15,0.42,4.53,1.27
		c1.38,0.85,2.47,2.08,3.27,3.71c0.8,1.63,1.2,3.55,1.2,5.78c0,1.64-0.23,3.15-0.69,4.52c-0.46,1.37-1.1,2.53-1.9,3.46
		c-0.81,0.93-1.76,1.65-2.86,2.15c-1.1,0.5-2.28,0.75-3.54,0.75c-1.52,0-2.8-0.31-3.84-0.92c-1.04-0.61-2.02-1.51-2.96-2.7v8.01
		c0,2.34-0.85,3.52-2.56,3.52c-1,0-1.67-0.3-1.99-0.91c-0.33-0.61-0.49-1.49-0.49-2.65V63.26c0-1.02,0.22-1.77,0.66-2.28
		c0.44-0.5,1.05-0.75,1.82-0.75c0.75,0,1.37,0.26,1.85,0.77C108.1,61.52,108.33,62.26,108.33,63.23z M118.78,70.98
		c0-1.41-0.21-2.61-0.64-3.62c-0.43-1.01-1.03-1.78-1.79-2.32c-0.76-0.54-1.6-0.81-2.53-0.81c-1.47,0-2.71,0.58-3.72,1.74
		c-1.01,1.16-1.51,2.87-1.51,5.12c0,2.12,0.5,3.77,1.5,4.95c1,1.18,2.25,1.77,3.73,1.77c0.89,0,1.71-0.26,2.46-0.77
		c0.75-0.51,1.36-1.29,1.82-2.31C118.55,73.68,118.78,72.44,118.78,70.98z"/>
	<path class="st1" d="M141.89,78.91c-1.29,1-2.54,1.75-3.74,2.26c-1.2,0.5-2.56,0.75-4.05,0.75c-1.37,0-2.57-0.27-3.6-0.81
		s-1.83-1.27-2.39-2.2c-0.56-0.92-0.84-1.93-0.84-3.01c0-1.46,0.46-2.7,1.39-3.73c0.92-1.03,2.19-1.72,3.81-2.07
		c0.34-0.08,1.18-0.25,2.52-0.53c1.34-0.27,2.49-0.52,3.45-0.75c0.96-0.23,2-0.5,3.12-0.83c-0.07-1.41-0.35-2.44-0.85-3.1
		c-0.5-0.66-1.54-0.99-3.12-0.99c-1.35,0-2.37,0.19-3.06,0.57c-0.68,0.38-1.27,0.94-1.76,1.7c-0.49,0.76-0.83,1.25-1.04,1.49
		c-0.2,0.24-0.63,0.36-1.3,0.36c-0.6,0-1.12-0.19-1.55-0.58c-0.44-0.38-0.65-0.88-0.65-1.47c0-0.94,0.33-1.85,1-2.73
		c0.66-0.88,1.7-1.61,3.11-2.19c1.41-0.57,3.16-0.86,5.25-0.86c2.34,0,4.19,0.28,5.53,0.83c1.34,0.55,2.29,1.43,2.84,2.63
		c0.55,1.2,0.83,2.79,0.83,4.77c0,1.25,0,2.31-0.01,3.18c-0.01,0.87-0.02,1.84-0.03,2.91c0,1,0.17,2.05,0.5,3.13
		c0.33,1.09,0.5,1.79,0.5,2.1c0,0.55-0.26,1.04-0.77,1.49c-0.51,0.45-1.1,0.67-1.75,0.67c-0.55,0-1.09-0.26-1.62-0.77
		C143.05,80.63,142.49,79.89,141.89,78.91z M141.54,71.19c-0.78,0.29-1.92,0.59-3.41,0.91c-1.49,0.32-2.52,0.55-3.1,0.7
		c-0.57,0.15-1.12,0.44-1.64,0.88c-0.52,0.44-0.78,1.04-0.78,1.83c0,0.81,0.31,1.49,0.92,2.06c0.61,0.57,1.41,0.85,2.4,0.85
		c1.05,0,2.03-0.23,2.92-0.69c0.89-0.46,1.55-1.06,1.96-1.79c0.48-0.81,0.72-2.13,0.72-3.98V71.19z"/>
	<path class="st1" d="M157.02,63.19v0.64c0.94-1.24,1.96-2.14,3.08-2.72c1.11-0.58,2.39-0.87,3.84-0.87c1.41,0,2.66,0.31,3.77,0.92
		c1.11,0.61,1.93,1.48,2.48,2.6c0.35,0.65,0.58,1.35,0.68,2.11c0.1,0.76,0.16,1.72,0.16,2.89v9.92c0,1.07-0.24,1.88-0.73,2.42
		s-1.12,0.82-1.9,0.82c-0.79,0-1.44-0.28-1.93-0.84s-0.74-1.36-0.74-2.4v-8.89c0-1.76-0.24-3.1-0.73-4.03
		c-0.49-0.93-1.46-1.4-2.92-1.4c-0.95,0-1.82,0.28-2.6,0.85s-1.35,1.34-1.72,2.33c-0.26,0.79-0.39,2.28-0.39,4.45v6.68
		c0,1.08-0.25,1.89-0.75,2.43c-0.5,0.54-1.15,0.81-1.94,0.81c-0.77,0-1.4-0.28-1.89-0.84c-0.5-0.56-0.74-1.36-0.74-2.4V63.26
		c0-1.02,0.22-1.77,0.66-2.28c0.44-0.5,1.05-0.75,1.82-0.75c0.47,0,0.89,0.11,1.27,0.33c0.38,0.22,0.68,0.55,0.91,1
		C156.91,62.01,157.02,62.55,157.02,63.19z"/>
	<path class="st1" d="M179.04,57.76c-0.74,0-1.38-0.23-1.9-0.68c-0.53-0.46-0.79-1.1-0.79-1.93c0-0.75,0.27-1.38,0.81-1.87
		s1.17-0.73,1.88-0.73c0.69,0,1.3,0.22,1.84,0.66c0.53,0.44,0.8,1.09,0.8,1.93c0,0.82-0.26,1.46-0.78,1.92
		C180.37,57.53,179.75,57.76,179.04,57.76z M181.67,63.26v15.41c0,1.07-0.25,1.88-0.76,2.42s-1.15,0.82-1.93,0.82
		s-1.42-0.28-1.9-0.84s-0.73-1.36-0.73-2.4V63.42c0-1.05,0.24-1.85,0.73-2.38c0.49-0.53,1.12-0.8,1.9-0.8s1.43,0.27,1.93,0.8
		C181.42,61.57,181.67,62.31,181.67,63.26z"/>
	<path class="st1" d="M207.14,71.08c0,1.59-0.25,3.05-0.74,4.39c-0.5,1.34-1.21,2.49-2.15,3.46c-0.94,0.96-2.06,1.7-3.36,2.22
		c-1.3,0.51-2.77,0.77-4.39,0.77c-1.61,0-3.07-0.26-4.36-0.78s-2.41-1.27-3.35-2.24c-0.94-0.97-1.66-2.12-2.15-3.44
		c-0.49-1.32-0.73-2.78-0.73-4.38c0-1.61,0.25-3.09,0.74-4.43c0.5-1.34,1.2-2.49,2.13-3.44c0.92-0.95,2.04-1.68,3.36-2.2
		c1.32-0.51,2.77-0.77,4.36-0.77c1.61,0,3.08,0.26,4.39,0.78c1.32,0.52,2.44,1.26,3.38,2.23c0.94,0.96,1.65,2.11,2.14,3.44
		S207.14,69.48,207.14,71.08z M201.79,71.08c0-2.17-0.48-3.87-1.44-5.08s-2.24-1.82-3.86-1.82c-1.04,0-1.96,0.27-2.75,0.81
		c-0.79,0.54-1.41,1.34-1.84,2.39s-0.64,2.29-0.64,3.69c0,1.39,0.21,2.61,0.63,3.65c0.42,1.04,1.03,1.84,1.82,2.39
		c0.79,0.55,1.72,0.83,2.78,0.83c1.61,0,2.9-0.61,3.86-1.83C201.31,74.91,201.79,73.23,201.79,71.08z"/>
	<path class="st1" d="M216.18,63.19v0.64c0.94-1.24,1.96-2.14,3.08-2.72c1.11-0.58,2.39-0.87,3.84-0.87c1.41,0,2.66,0.31,3.77,0.92
		c1.11,0.61,1.93,1.48,2.48,2.6c0.35,0.65,0.58,1.35,0.68,2.11c0.1,0.76,0.16,1.72,0.16,2.89v9.92c0,1.07-0.24,1.88-0.73,2.42
		s-1.12,0.82-1.9,0.82c-0.79,0-1.44-0.28-1.93-0.84s-0.74-1.36-0.74-2.4v-8.89c0-1.76-0.24-3.1-0.73-4.03
		c-0.49-0.93-1.46-1.4-2.92-1.4c-0.95,0-1.82,0.28-2.6,0.85s-1.35,1.34-1.72,2.33c-0.26,0.79-0.39,2.28-0.39,4.45v6.68
		c0,1.08-0.25,1.89-0.75,2.43s-1.15,0.81-1.94,0.81c-0.77,0-1.4-0.28-1.89-0.84s-0.74-1.36-0.74-2.4V63.26
		c0-1.02,0.22-1.77,0.66-2.28c0.44-0.5,1.05-0.75,1.82-0.75c0.47,0,0.89,0.11,1.27,0.33c0.38,0.22,0.68,0.55,0.91,1
		C216.07,62.01,216.18,62.55,216.18,63.19z"/>
	<path class="st1" d="M252.67,74.94c0,1.47-0.36,2.73-1.07,3.78c-0.72,1.05-1.77,1.84-3.17,2.38s-3.1,0.81-5.11,0.81
		c-1.91,0-3.55-0.29-4.92-0.88s-2.38-1.32-3.03-2.2s-0.98-1.76-0.98-2.65c0-0.59,0.21-1.09,0.62-1.5c0.42-0.42,0.94-0.62,1.58-0.62
		c0.56,0,0.99,0.14,1.29,0.41s0.59,0.66,0.86,1.15c0.55,0.95,1.2,1.66,1.96,2.13s1.8,0.7,3.12,0.7c1.07,0,1.94-0.24,2.63-0.71
		c0.68-0.47,1.03-1.02,1.03-1.63c0-0.94-0.35-1.62-1.06-2.05s-1.88-0.84-3.51-1.23c-1.84-0.46-3.33-0.93-4.48-1.44
		c-1.15-0.5-2.07-1.16-2.76-1.98s-1.04-1.83-1.04-3.03c0-1.07,0.32-2.08,0.96-3.03c0.64-0.95,1.58-1.71,2.82-2.28
		s2.74-0.85,4.5-0.85c1.38,0,2.62,0.14,3.72,0.43c1.1,0.29,2.02,0.67,2.75,1.15c0.74,0.48,1.3,1.02,1.68,1.6s0.58,1.16,0.58,1.72
		c0,0.61-0.21,1.11-0.62,1.5s-0.99,0.59-1.75,0.59c-0.55,0-1.01-0.16-1.4-0.47s-0.82-0.78-1.32-1.41c-0.4-0.52-0.88-0.94-1.43-1.25
		s-1.29-0.47-2.23-0.47c-0.96,0-1.76,0.21-2.4,0.62s-0.96,0.92-0.96,1.53c0,0.56,0.23,1.02,0.7,1.38c0.47,0.36,1.1,0.65,1.89,0.89
		s1.89,0.52,3.28,0.86c1.65,0.4,3,0.89,4.05,1.45c1.05,0.56,1.84,1.22,2.38,1.98S252.67,73.97,252.67,74.94z"/>
</g>
</svg>
