<svg id="Layer_1" data-name="Layer 1" xmlns="http://www.w3.org/2000/svg" viewBox="0 0 325.53 198.58"><defs><style>.cls-1,.cls-4,.cls-6,.cls-7{fill:#fff;}.cls-1,.cls-2,.cls-4,.cls-6{stroke:#fff;}.cls-1,.cls-2,.cls-4,.cls-5,.cls-6{stroke-miterlimit:10;}.cls-1{stroke-width:1.67px;}.cls-2,.cls-3{fill:#ea3434;}.cls-2{stroke-width:1.47px;}.cls-4{stroke-width:1.17px;}.cls-5{fill:none;stroke:#ea3434;stroke-width:1.76px;}.cls-6{stroke-width:0.76px;}</style></defs><title>lowcare_image</title><ellipse class="cls-1" cx="58.09" cy="73.44" rx="57.25" ry="16.36"/><path class="cls-1" d="M6.23,77.56l6.93-30.75s50.26-.87,100.85-.92L121,76.65" transform="translate(-5.39 -4.12)"/><ellipse class="cls-2" cx="58.09" cy="42.68" rx="50.32" ry="14.38"/><ellipse class="cls-3" cx="61.73" cy="73.81" rx="14.51" ry="8.15"/><polygon class="cls-3" points="49.26 69.64 40.71 62.53 40.71 73.81 49.26 73.81 49.26 69.64"/><polygon class="cls-3" points="49.26 77.49 40.71 84.6 40.71 73.32 49.26 73.32 49.26 77.49"/><path class="cls-4" d="M286.13,56.88c28.62,22.87-14.3,58.43-14.3,58.43l-19.77-15.8" transform="translate(-5.39 -4.12)"/><path class="cls-4" d="M286.13,56.88C257.51,34,232,83.5,232,83.5l20,16" transform="translate(-5.39 -4.12)"/><path class="cls-4" d="M291.68,62.54" transform="translate(-5.39 -4.12)"/><circle class="cls-4" cx="312.44" cy="13.09" r="12.5"/><path class="cls-4" d="M271.79,50.9s19.86-2.4,35.94-41.07L327.6,25c-34.18,24.21-32.14,44.11-32.14,44.11Z" transform="translate(-5.39 -4.12)"/><line class="cls-5" x1="264.07" y1="95.9" x2="279.85" y2="76.16"/><line class="cls-5" x1="252.96" y1="87.02" x2="269.22" y2="67.67"/><line class="cls-5" x1="242.33" y1="78.53" x2="258.11" y2="58.79"/><path class="cls-6" d="M241.24,69.08s-9,11.14-18.43,7.46l15.35,12Z" transform="translate(-5.39 -4.12)"/><path class="cls-3" d="M265.59,111.08s7,4.49,14.49-3l5.16,12.17-15.78,8.38-8.56-12.53Z" transform="translate(-5.39 -4.12)"/><rect class="cls-7" x="212.85" y="92.34" width="57.52" height="5.76" transform="translate(107.32 -134.36) rotate(38.73)"/><path class="cls-7" d="M262.24,115.46s11.42-.82,17.84-7.41l-16.58-5.84Z" transform="translate(-5.39 -4.12)"/><circle class="cls-7" cx="136.83" cy="119.18" r="25.65"/><circle class="cls-7" cx="187.64" cy="119.7" r="25.65"/><polygon class="cls-7" points="116.73 135.11 162.48 198.58 208.15 135.11 161.99 119.7 116.73 135.11"/></svg>