<?xml version="1.0" encoding="utf-8"?>
<!-- Generator: Adobe Illustrator 23.0.3, SVG Export Plug-In . SVG Version: 6.00 Build 0)  -->
<svg version="1.1" id="Layer_1" xmlns="http://www.w3.org/2000/svg" xmlns:xlink="http://www.w3.org/1999/xlink" x="0px" y="0px"
	 viewBox="0 0 472.09 305.97" style="enable-background:new 0 0 472.09 305.97;" xml:space="preserve">
<style type="text/css">
	.st0{fill:#FFFFFF;stroke:#FFFFFF;stroke-width:2;stroke-miterlimit:10;}
	.st1{fill:#EA3434;stroke:#FFFFFF;stroke-width:2;stroke-miterlimit:10;}
	.st2{fill:none;stroke:#EA3434;stroke-width:2;stroke-miterlimit:10;}
	.st3{fill:#EA3434;stroke:#EA3434;stroke-width:2;stroke-miterlimit:10;}
	.st4{fill:#FFFFFF;stroke:#EA3434;stroke-width:2;stroke-miterlimit:10;}
	.st5{fill:#FFFFFF;stroke:#FFFFFF;stroke-miterlimit:10;}
</style>
<rect x="96.36" y="216.82" class="st0" width="39.88" height="57.63"/>
<rect x="274.74" y="216.82" class="st0" width="39.88" height="57.63"/>
<path class="st0" d="M289.4,102.45c0,0,82.33,8.63,82.33-51.67c0,0-3.36-38.45,47-38.45c0,0,42.08,1.21,42.08,38.45
	c0,0-11.6,95.18-119.16,95.18"/>
<path class="st0" d="M289.53,230.64c30.46,0,55.15-28.7,55.15-64.1s-24.69-64.1-55.15-64.1H123.56c-30.46,0-55.15,28.7-55.15,64.1
	s24.69,64.1,55.15,64.1H289.53z"/>
<g>
	<g>
		<path class="st1" d="M83.29,212.04c98.6-80.57,51.17-122.05,51.17-122.05H32.84c0,0-47.43,41.48,51.17,122.05"/>
	</g>
</g>
<path class="st1" d="M32.84,89.99c0,0-18.68-39.66-10.96-48.92c0,0,5.19-12.77,39.77,9.47"/>
<path class="st1" d="M133.94,89.99c0,0,18.68-39.66,10.96-48.92c0,0-5.19-12.77-39.77,9.47"/>
<circle class="st0" cx="84.01" cy="97.68" r="52.16"/>
<circle class="st2" cx="60.43" cy="96.65" r="10.56"/>
<ellipse class="st3" cx="60.43" cy="96.65" rx="3.84" ry="5.8"/>
<circle class="st2" cx="106.85" cy="96.65" r="10.56"/>
<ellipse class="st3" cx="106.85" cy="96.65" rx="3.84" ry="5.8"/>
<g>
	<path class="st3" d="M84.01,105.73c-9.96,0-8,2.38-8,2.38s8,3.48,8,6.97"/>
	<path class="st3" d="M84.01,105.73c9.96,0,8,2.38,8,2.38s-8,3.48-8,6.97"/>
</g>
<line class="st4" x1="118.01" y1="110.32" x2="160.65" y2="105.65"/>
<line class="st4" x1="120.14" y1="119.08" x2="162.78" y2="123.75"/>
<line class="st4" x1="48.88" y1="110.32" x2="6.24" y2="105.65"/>
<line class="st4" x1="46.76" y1="119.08" x2="4.12" y2="123.75"/>
<g>
	<circle class="st1" cx="116.4" cy="277.08" r="21.64"/>
	<circle class="st1" cx="294.78" cy="277.08" r="21.64"/>
</g>
<path class="st5" d="M138.04,231.64c0,0,68.1,23.14,135.1,0C273.14,231.64,217.1,204.61,138.04,231.64z"/>
</svg>
