<svg id="Layer_1" data-name="Layer 1" xmlns="http://www.w3.org/2000/svg" viewBox="0 0 343.46 149.77"><defs><style>.cls-1{fill:#fff;}.cls-1,.cls-2,.cls-3{stroke:#fff;stroke-miterlimit:10;stroke-width:3px;}.cls-2{fill:#ea3434;}.cls-3{fill:none;}</style></defs><title>reducedstress_image</title><path class="cls-1" d="M38.29,87.27S3,53.34,7.33,42.22c0,0,2.78-7.07,42.24,2.88" transform="translate(-5.46 1.5)"/><path class="cls-1" d="M134.92,54.76s7.6-48.35-2.57-54.6c0,0-6.49-3.95-31.91,27.82" transform="translate(-5.46 1.5)"/><circle class="cls-2" cx="83.67" cy="79.69" r="51.62"/><path class="cls-1" d="M94.39,93.8c-9.35,3.14-6.75,4.76-6.75,4.76s8.6.74,9.7,4" transform="translate(-5.46 1.5)"/><path class="cls-1" d="M94.39,93.8c9.34-3.15,8.25-.29,8.25-.29s-6.4,5.79-5.3,9.06" transform="translate(-5.46 1.5)"/><line class="cls-3" x1="65.94" y1="104.24" x2="24.46" y2="113.31"/><line class="cls-3" x1="67.72" y1="111.88" x2="29.19" y2="129.72"/><line class="cls-3" x1="113.13" y1="88.36" x2="151.65" y2="70.52"/><line class="cls-3" x1="116.33" y1="95.53" x2="157.81" y2="86.46"/><path class="cls-3" d="M62.6,83.82s4-10.44,14.92-5" transform="translate(-5.46 1.5)"/><path class="cls-1" d="M302.39,20.7S255.92-50.35,192.28,84l65.45,31" transform="translate(-5.46 1.5)"/><path class="cls-1" d="M302.38,20.71s85-8.75,21.41,125.56L257.72,115" transform="translate(-5.46 1.5)"/><path class="cls-3" d="M98.06,71.9s4-10.45,14.91-5" transform="translate(-5.46 1.5)"/><circle class="cls-2" cx="228.3" cy="50.4" r="13.1"/><circle class="cls-2" cx="317.92" cy="93.69" r="13.1"/><circle class="cls-2" cx="274.59" cy="69.33" r="52.15"/><path class="cls-3" d="M273.25,72.24s-29.1,2.71,2.52,17" transform="translate(-5.46 1.5)"/><path class="cls-3" d="M256.54,55.4s10.12-4.76,14.22,6.74" transform="translate(-5.46 1.5)"/><path class="cls-3" d="M290.35,71.42s10.11-4.76,14.22,6.73" transform="translate(-5.46 1.5)"/><path class="cls-1" d="M239.37,37.06s46,19.65,63-16.36C302.39,20.7,265.68-1.49,239.37,37.06Z" transform="translate(-5.46 1.5)"/></svg>