<?xml version="1.0" encoding="utf-8"?>
<!-- Generator: Adobe Illustrator 23.0.3, SVG Export Plug-In . SVG Version: 6.00 Build 0)  -->
<svg version="1.1" id="Layer_1" xmlns="http://www.w3.org/2000/svg" xmlns:xlink="http://www.w3.org/1999/xlink" x="0px" y="0px"
	 viewBox="0 0 444.19 305.97" style="enable-background:new 0 0 444.19 305.97;" xml:space="preserve">
<style type="text/css">
	.st0{fill:#FFFFFF;stroke:#FFFFFF;stroke-width:2;stroke-miterlimit:10;}
	.st1{fill:#EA3434;stroke:#FFFFFF;stroke-width:2;stroke-miterlimit:10;}
	.st2{fill:none;stroke:#EA3434;stroke-width:2;stroke-miterlimit:10;}
	.st3{fill:#EA3434;stroke:#EA3434;stroke-width:2;stroke-miterlimit:10;}
	.st4{fill:#FFFFFF;stroke:#EA3434;stroke-width:2;stroke-miterlimit:10;}
</style>
<path class="st0" d="M298.33,110.33c0,0,113.38,13.13,113.38-40.16c0,0,15.48-50.68-120.62-50.68c0,0,145.38-41.91,145.38,51.37
	c0,0-0.28,61.8-102.44,61.8"/>
<rect x="94.6" y="204" class="st0" width="28.03" height="77.39"/>
<path class="st1" d="M31.93,87.71c0,0-17.96-15.67-19.25-50.07c0,0-1.27-20.81,19.12-5.86c0,0,29.09,27.03,36.93,30.49
	C68.73,62.27,50.87,92.07,31.93,87.71z"/>
<path class="st1" d="M131.4,87.71c0,0,17.96-15.67,19.25-50.07c0,0,1.27-20.81-19.12-5.86c0,0-29.09,27.03-36.93,30.49
	C94.6,62.27,112.46,92.07,131.4,87.71z"/>
<rect x="270.3" y="204" class="st0" width="28.03" height="77.39"/>
<path class="st1" d="M287.78,211.72c30.46,0,55.15-22.91,55.15-51.16s-24.69-51.16-55.15-51.16H121.81
	c-30.46,0-55.15,22.91-55.15,51.16s24.69,51.16,55.15,51.16h89.51h29H287.78z"/>
<circle class="st0" cx="82.26" cy="104.62" r="52.16"/>
<circle class="st2" cx="58.67" cy="103.6" r="10.56"/>
<ellipse class="st3" cx="58.67" cy="103.6" rx="3.84" ry="5.8"/>
<circle class="st2" cx="106.1" cy="103.6" r="10.56"/>
<ellipse class="st3" cx="106.1" cy="103.6" rx="3.84" ry="5.8"/>
<g>
	<path class="st3" d="M82.26,132.68c-9.96,0-8,2.38-8,2.38s8,3.48,8,6.97"/>
	<path class="st3" d="M82.26,132.68c9.96,0,8,2.38,8,2.38s-8,3.48-8,6.97"/>
</g>
<line class="st4" x1="55.13" y1="130.27" x2="12.49" y2="125.59"/>
<line class="st4" x1="59.01" y1="139.02" x2="16.37" y2="143.7"/>
<path class="st2" d="M136.29,243.6"/>
<path class="st2" d="M303.67,271.28"/>
<path class="st2" d="M291.09,243.6"/>
<path class="st2" d="M94.54,224.62"/>
<circle class="st1" cx="106.73" cy="279.12" r="16.74"/>
<line class="st4" x1="109.03" y1="130.3" x2="151.67" y2="125.62"/>
<line class="st4" x1="105.15" y1="139.05" x2="147.79" y2="143.73"/>
<circle class="st1" cx="282.43" cy="279.12" r="16.74"/>
</svg>
