<svg id="Layer_1" data-name="Layer 1" xmlns="http://www.w3.org/2000/svg" viewBox="0 0 455.98 206.31"><defs><style>.cls-1{fill:#fff;}.cls-1,.cls-2,.cls-3{stroke:#fff;stroke-miterlimit:10;stroke-width:2px;}.cls-2{fill:#ea3434;}.cls-3{fill:none;}</style></defs><title>sleeping_image</title><path class="cls-1" d="M447.31,160.1s54.42,79.63-147.63,44.2" transform="translate(1 -8.07)"/><path class="cls-2" d="M312.6,130.1s61.63-54.4,120.27,0c0,0,68.79,74.2-92.66,74.2H210.82" transform="translate(1 -8.07)"/><path class="cls-1" d="M226.32,132.25S206.26,96,212.54,88.08c0,0,4-5,33.44,12.88" transform="translate(1 -8.07)"/><circle class="cls-1" cx="230.33" cy="170.24" r="12.73"/><circle class="cls-1" cx="211.15" cy="183.5" r="12.73"/><path class="cls-1" d="M312.6,130.1s18.22-37.2,11.56-44.8c0,0-4.26-4.81-32.76,14.53" transform="translate(1 -8.07)"/><circle class="cls-2" cx="270.72" cy="129.54" r="43.7"/><path class="cls-1" d="M270.06,151.55c-8.34.21-6.65,2.16-6.65,2.16s6.77,2.75,6.85,5.67" transform="translate(1 -8.07)"/><path class="cls-1" d="M270.06,151.55c8.35-.21,6.75,1.83,6.75,1.83s-6.63,3.08-6.55,6" transform="translate(1 -8.07)"/><line class="cls-3" x1="250.23" y1="144.97" x2="214.42" y2="141.94"/><line class="cls-3" x1="249.76" y1="151.6" x2="214.15" y2="156.4"/><line class="cls-3" x1="292.37" y1="143.92" x2="327.99" y2="139.11"/><line class="cls-3" x1="293.17" y1="150.52" x2="328.98" y2="153.54"/><line class="cls-3" x1="246.99" y1="127.24" x2="262.34" y2="127.24"/><line class="cls-3" x1="280.52" y1="127.24" x2="295.87" y2="127.24"/><circle class="cls-2" cx="144.65" cy="27.19" r="11.92"/><path class="cls-1" d="M108.1,108.39s-1.41,42.79-24.7,42.79H0L.33,9.07h83.4c23.29,0,24.7,42.79,24.7,42.79Z" transform="translate(1 -8.07)"/><circle class="cls-2" cx="143.96" cy="117.77" r="11.92"/><circle class="cls-2" cx="147.11" cy="72.64" r="47.47"/><path class="cls-1" d="M200.29,80.72c0-60-59-47.47-59-47.47s4.29,18.6,37.08,18.6c0,0-1.52,3.51-1.52,28.87" transform="translate(1 -8.07)"/><path class="cls-1" d="M200.29,80.72c0,60-59,47.46-59,47.46s4.81-18.6,37.6-18.6c0,0-2-3.51-2-28.86" transform="translate(1 -8.07)"/><path class="cls-2" d="M139.83,85.51s-13.57,22.88-13-8.69" transform="translate(1 -8.07)"/><line class="cls-3" x1="148.11" y1="48.2" x2="148.11" y2="63.56"/><line class="cls-3" x1="148.11" y1="82.73" x2="148.11" y2="98.09"/></svg>