<?xml version="1.0" encoding="utf-8"?>
<!-- Generator: Adobe Illustrator 23.0.3, SVG Export Plug-In . SVG Version: 6.00 Build 0)  -->
<svg version="1.1" id="Layer_1" xmlns="http://www.w3.org/2000/svg" xmlns:xlink="http://www.w3.org/1999/xlink" x="0px" y="0px"
	 viewBox="0 0 359.3 197.67" style="enable-background:new 0 0 359.3 197.67;" xml:space="preserve">
<style type="text/css">
	.st0{fill:#58B3DB;}
	.st1{fill:#FFFFFF;stroke:#58B3DB;stroke-width:1.7989;stroke-miterlimit:10;}
	.st2{fill:none;stroke:#58B3DB;stroke-width:1.7989;stroke-miterlimit:10;}
	.st3{fill:#58B3DB;stroke:#58B3DB;stroke-width:1.7989;stroke-miterlimit:10;}
	.st4{fill:none;stroke:#58B3DB;stroke-width:2;stroke-miterlimit:10;}
	.st5{fill:#FFFFFF;stroke:#58B3DB;stroke-width:2;stroke-miterlimit:10;}
	.st6{fill:none;stroke:#EA3434;stroke-width:3;stroke-miterlimit:10;}
	.st7{fill:none;stroke:#FFFFFF;stroke-width:2;stroke-miterlimit:10;}
</style>
<path class="st0" d="M54.98,99.39c0,0-19.35-37.13-12.81-44.97c0,0,4.18-4.97,33.47,13.86"/>
<path class="st0" d="M142.2,99.39c0,0,19.35-37.13,12.81-44.97c0,0-4.18-4.97-33.47,13.86"/>
<circle class="st1" cx="98.69" cy="105.89" r="44.16"/>
<circle class="st2" cx="80.18" cy="105.03" r="8.94"/>
<ellipse class="st3" cx="80.18" cy="105.03" rx="3.25" ry="4.91"/>
<circle class="st2" cx="116.57" cy="105.03" r="8.94"/>
<ellipse class="st3" cx="116.57" cy="105.03" rx="3.25" ry="4.91"/>
<g>
	<g>
		<path class="st3" d="M98.69,119.98c-8.44,0-6.77,2.02-6.77,2.02s6.77,2.95,6.77,5.9"/>
		<path class="st3" d="M98.69,119.98c8.44,0,6.77,2.02,6.77,2.02s-6.77,2.95-6.77,5.9"/>
	</g>
</g>
<line class="st2" x1="77.61" y1="120.96" x2="41.51" y2="117"/>
<line class="st2" x1="76.97" y1="127.65" x2="40.87" y2="131.61"/>
<line class="st2" x1="120.21" y1="120.96" x2="156.31" y2="117"/>
<line class="st2" x1="120.85" y1="127.65" x2="156.95" y2="131.61"/>
<circle class="st4" cx="212.67" cy="107.96" r="11.92"/>
<circle class="st4" cx="303.25" cy="108.64" r="11.92"/>
<circle class="st5" cx="258.13" cy="105.49" r="47.47"/>
<g>
	<g>
		<path class="st0" d="M258.13,51.31c-59.99,0-47.47,58.99-47.47,58.99s18.6-4.29,18.6-37.08c0,0,3.5,1.52,28.86,1.52"/>
		<path class="st0" d="M258.13,51.31c59.99,0,47.47,58.99,47.47,58.99s-18.6-4.81-18.6-37.6c0,0-3.5,2.04-28.86,2.04"/>
	</g>
</g>
<circle class="st0" cx="240.63" cy="104.3" r="6"/>
<circle class="st0" cx="275.62" cy="103.52" r="6"/>
<path class="st4" d="M254.24,111.77c0,0-22.88,13.57,8.69,12.99"/>
<circle class="st6" cx="98.94" cy="97.94" r="93.95"/>
<circle class="st6" cx="259.93" cy="98.09" r="93.95"/>
<line class="st7" x1="215.5" y1="113.8" x2="230.85" y2="113.8"/>
</svg>
